<?xml version="1.0" standalone="no"?>
<!DOCTYPE svg PUBLIC "-//W3C//DTD SVG 1.1//EN" "http://www.w3.org/Graphics/SVG/1.1/DTD/svg11.dtd" >
<svg>
<metadata>
Created by FontForge 20090914 at Fri Nov 13 10:10:12 2015
 By www-data
Copyright 1990-1993 Bitstream Inc. All rights reserved.
</metadata>
<defs>
<font id="BankGothicRUSSMedium" horiz-adv-x="2048" >
  <font-face 
    font-family="BankGothic RUSS"
    font-weight="400"
    font-stretch="normal"
    units-per-em="4096"
    panose-1="2 11 114 0 0 0 0 0 0 0"
    ascent="3276"
    descent="-820"
    x-height="1733"
    cap-height="2114"
    bbox="-1401 -967 5161 3322"
    underline-thickness="143"
    underline-position="-99"
    unicode-range="U+0001-U+2122"
  />
<missing-glyph horiz-adv-x="3072" 
d="M512 0v2560h2048v-2560h-2048zM2494 66v2428h-1916v-2428h1916z" />
    <glyph glyph-name=".notdef" horiz-adv-x="3072" 
d="M512 0v2560h2048v-2560h-2048zM2494 66v2428h-1916v-2428h1916z" />
    <glyph glyph-name="FDW0" 
d="M1765 1958l324 692h393l-508 -692h-209zM1450 1958h-209l266 692h377z" />
    <glyph glyph-name="FDW0" 
d="M1765 1958l324 692h393l-508 -692h-209zM1450 1958h-209l266 692h377z" />
    <glyph glyph-name="FDW1" 
d="M1933 0c-86.667 -75.333 -152 -147.666 -196 -216.999c-41.333 -70.667 -62 -140.334 -62 -209.001c0 -57.333 13.667 -98.333 41 -123c26 -24.667 71 -37 135 -37h185v-311h-193c-157.333 0 -273.333 28.667 -348 86c-74 60.667 -111 152 -111 274
c0 88 30.333 174 91 258c64 90.667 158 183.667 282 279h176z" />
    <glyph glyph-name="FDW2" 
d="M881 2650h258l336 -418l331 418h262l-376 -696h-435z" />
    <glyph glyph-name="FDW3" horiz-adv-x="2798" 
d="M774 0v586l-319 -221v426l319 221v1102h492v-807l647 450v-434l-647 -451v-475h1585v-397h-2077z" />
    <glyph glyph-name="FDW4" horiz-adv-x="2261" 
d="M500 0v463l-275 -197v352l275 193v922h426v-672l585 414v-361l-585 -409v-381h1360v-324h-1786z" />
    <glyph glyph-name="FDW5" horiz-adv-x="3314" 
d="M2867 1745h-1384v-455h1319c205.333 0 346 -35.333 422 -106c70.667 -72 106 -203 106 -393v-291c0 -190.667 -35.333 -322 -106 -394c-76 -70.667 -216.667 -106 -422 -106h-1307c-206.667 -0 -346 35.333 -418 106c-73.333 70 -110 201.333 -110 394v57l434 90v-250
h1495v484h-1319c-204 0 -342 35.333 -414 106c-73.333 70 -110 201 -110 393v234c0 192 36.667 323 110 393c71.333 71.333 209.333 107 414 107h1200c199.333 0 337.333 -34.333 414 -103c73.333 -68.667 110 -188.667 110 -360v-45l-434 -103v242zM1561 3031h258l335 -418
l332 418h262l-376 -696h-435z" />
    <glyph glyph-name="FDW6" horiz-adv-x="2716" 
d="M2343 1421l-1192 -0.000976562v-364h1126c178 0 298.333 -28.667 361 -86c60 -57.333 90 -165.333 90 -324v-237c0 -157.333 -31.333 -265.333 -94 -324c-62.667 -57.333 -181.667 -86 -357 -86h-1122c-181.333 0 -302.666 28.667 -363.999 86
c-63.333 58 -95 166 -95 324v49l377 69v-204h1274v397h-1122c-178 0 -298.333 28.667 -361 86c-62.667 58.667 -94 166.334 -94 323.001v193c0 152 31.333 260 94 324c62.667 57.333 183 86 361 86h1028c172.667 0 292.667 -27.333 360 -82c62.667 -58.667 94 -157 94 -295
v-41l-364 -78v184zM1122 2650h258l336 -418l332 418h262l-377 -696h-434z" />
    <glyph glyph-name="FDW7" horiz-adv-x="2793" 
d="M512 0v229l1479 1508h-1332v377h2122v-209l-1499 -1508h1499v-397h-2269zM1065 3031h258l336 -418l332 418h262l-377 -696h-434z" />
    <glyph glyph-name="FDW8" horiz-adv-x="2523" 
d="M586 0v188l1269 1233h-1142v312h1827v-172l-1295 -1242h1295v-319h-1954zM967 2650h258l336 -418l331 418h262l-376 -696h-435z" />
    <glyph glyph-name="FDW9" unicode="&#x9;" 
d="M2093 815v-1515h-299v1515h299zM2093 2863v-1515h-299v1515h299z" />
    <glyph glyph-name="FDW10" unicode="&#xa;" horiz-adv-x="3469" 
d="M1188 397l635 0.000976562c336 0 576.333 53.333 721 160c142 101.333 213 274.666 213 519.999c0 218 -59 382 -177 492c-120 112 -293.333 168 -520 168h-872v-434h786v-390h-786v-516zM696 0.000976562v912.999h-393v390h393v811h1360c388 0 687 -90.333 897 -271
c208 -183.333 312 -441.333 312 -774c0 -195.333 -41 -372.666 -123 -531.999c-80.667 -158 -195.334 -282.333 -344 -373c-94 -57.333 -207.333 -98.333 -340 -123c-132 -27.333 -308.333 -41 -529 -41h-1233z" />
    <glyph glyph-name="FDW11" horiz-adv-x="2843" 
d="M438 0v733h-336v316h336v684h1168c332 0 588.667 -74 770 -222c180 -150.667 270 -363.667 270 -639c0 -294.667 -95.667 -513 -287 -655c-190 -144.667 -476.667 -217 -860 -217h-1061zM864 324h544.999c294.667 0 502.167 43.667 622.5 131s180.5 233.333 180.5 438
c0 178.667 -49.333 311 -148 397c-99.333 87.333 -250.666 131 -453.999 131h-746v-372h680v-316h-680v-409z" />
    <glyph glyph-name="FDW14" horiz-adv-x="3043" 
d="M1589 1376v-561.001h1106c86 0 144.667 12.333 176 37c30 26 45 69.667 45 131v225c0 62.667 -15 106.334 -45 131.001c-31.333 24.667 -90 37 -176 37h-1106zM1106 2114l483 0.00195312v-373h1323c168 0 291 -33 369 -99c73.333 -64.667 110 -168.334 110 -311.001v-471
c0 -142.667 -36.667 -246.334 -110 -311.001c-77.333 -65.333 -200.333 -98 -369 -98h-1323v-451h-483v2114z" />
    <glyph glyph-name="FDW15" horiz-adv-x="2572" 
d="M2359 995c0 54 -13.667 90.833 -41 110.5s-77.666 29.5 -151 29.5h-963v-459h963c77.333 0 129 9.66699 155 29c24.667 20 37 55.333 37 106v184zM791 1733h413v-299h1143c147.333 0 251 -26 311 -78c63.333 -54 95 -140 95 -258v-389c0 -115.333 -31.667 -200 -95 -254
c-58.667 -52 -162.334 -78 -311 -78h-1143v-377h-413v1733z" />
    <glyph glyph-name="FDW16" horiz-adv-x="3412" 
d="M3437 1364v-283h-2397v283h2397z" />
    <glyph glyph-name="FDW17" horiz-adv-x="3412" 
d="M2335 1417l938 938l196 -196l-938 -938l938 -938l-196 -193l-938 934l-938 -934l-197 193l938 938l-938 938l197 196z" />
    <glyph glyph-name="FDW18" horiz-adv-x="2089" 
d="M1647 844v1028h-295v168l590 82v-1278h-295z" />
    <glyph glyph-name="FDW19" horiz-adv-x="2089" 
d="M700 1864c0 94.667 22.002 159.999 66.002 195.999s128.667 54 254 54h717c125.333 0 210 -18 254 -54c43.333 -35.333 65 -100.666 65 -195.999v-82c0 -61.333 -9.33301 -109.333 -28 -144c-18.667 -28 -69.334 -66 -152.001 -114l-819 -451h811v184l258 -65v-98
c0 -95.333 -22 -161 -66 -197c-42.667 -35.333 -127.334 -53 -254.001 -53h-1175v114c0 55.333 12.333 99.333 37 132c36.667 36.667 83 70.667 139 102l967 541v163h-795v-262l-279 66v164z" />
    <glyph glyph-name="FDW20" horiz-adv-x="2089" 
d="M930 844c-127.333 0 -210.666 17.6689 -249.999 53.002c-44 32 -66 97.667 -66 197v102l287 53v-176h750c54 0 90.667 8.33301 110 25c16.667 12 25 40.667 25 86v94c0 48 -8.33301 78 -25 90c-20.667 16.667 -57.334 25 -110.001 25h-471v209h422c50.667 0 86 8 106 24
c16.667 12.667 25 42.667 25 90v66c0 46 -8.33301 77.333 -25 94c-22 13.333 -57.333 20 -106 20h-693v-159l-274 49v78c0 95.333 21.667 160.666 65 195.999c44 36 128.667 54 254 54h754c125.333 0 210 -18 254 -54s66 -101.333 66 -196v-115
c0 -74.667 -20.667 -130.667 -62 -168c-36 -36 -105.667 -60.667 -209 -74c112 -12 194 -37.833 246 -77.5s78 -99.834 78 -180.501v-131c0 -107.333 -24.833 -179.833 -74.5 -217.5s-138.167 -56.5 -265.5 -56.5h-811z" />
    <glyph glyph-name="FDW21" horiz-adv-x="4674" 
d="M4555 -12v274h-1008v197l1000 737h290v-737h324v-197h-324v-274h-282zM4555 459v528l-725 -528h725zM4018 2179l-1782 -2245h-266l1786 2245h262zM1573 930v958h-283v160l565 74v-1192h-282z" />
    <glyph glyph-name="FDW22" horiz-adv-x="4674" 
d="M3699 950c0 91.333 21.667 153 65 185c42 32.667 122.667 49 242 49h680c118 0 200 -16.333 246 -49c40.666 -32.667 61 -94.334 61 -185.001v-73c0 -61.333 -9.66602 -105.333 -29 -132c-22 -31.333 -69.666 -68 -143 -110l-782 -422h774v176l246 -61v-95
c0 -89.333 -20.666 -150.666 -62 -183.999c-44.666 -32.667 -126.666 -49 -246 -49h-1118v106c0 54.667 12.333 95.667 37 123c18.667 22 62.334 53.667 131 95l922 503v156h-762v-246l-262 62v151zM4018 2179l-1782 -2245h-266l1786 2245h262zM1573 930v958h-283v160
l565 74v-1192h-282z" />
    <glyph glyph-name="FDW23" horiz-adv-x="4674" 
d="M4190 -12v274h-1007v197l999 737h291v-737h323v-197h-323v-274h-283zM4190 459v528l-725 -528h725zM3654 2179l-1782 -2245h-266l1785 2245h263zM885 930c-119.333 0 -201.332 16.3311 -245.999 48.998c-40.667 32.667 -61 94 -61 184v94l274 50v-164h717
c50 0 84 6.66699 102 20c19.333 15.333 29 44 29 86v86c0 42.667 -9.66699 71.334 -29 86.001c-17.333 14 -51.333 21 -102 21h-447v192h398c46.667 0 80.667 7 102 21c16.667 16.667 25 46.667 25 90v57c0 44.667 -8.33301 73.334 -25 86.001
c-19.333 16.667 -53.333 25 -102 25h-656v-148l-266 41v74c0 92 22 153.333 66 184c41.333 33.333 121.666 50 240.999 50h717c118.667 0 200.667 -16.667 246 -50c40.667 -32 61 -93.333 61 -184v-106c0 -67.333 -19 -118 -57 -152c-36 -36 -103 -60.667 -201 -74
c104.667 -8 182.667 -31 234 -69c48.667 -40.667 73 -98 73 -172v-123c0 -96 -23 -163 -69 -201c-42.667 -35.333 -126 -53 -250 -53h-774z" />
    <glyph glyph-name="FDW26" horiz-adv-x="3502" 
d="M3043 1737h-1536v-1340h1536v471h-802v361h1282v-729c0 -191.333 -35.667 -322.666 -107 -393.999c-76 -70.667 -215.333 -106 -418 -106h-1458c-202.667 0 -342 35.333 -418 106c-70.667 72 -106 203.333 -106 394v1114c0 190 35.333 321 106 393
c75.333 71.333 214.666 107 417.999 107h1458c203.333 0 341.333 -34.333 414 -103c74 -68.667 111 -194.334 111 -377.001v-49l-480 -86v238zM1675 2978h241.999c8 -100.667 39.333 -174.334 94 -221c59.333 -46.667 146.666 -70 262 -70c117.333 0 203.333 23.333 258 70
c58.667 45.333 90.334 119 95.001 221h237c-12 -196.667 -66.667 -344.334 -164 -443c-95.333 -95.333 -237.333 -143 -426 -143c-186 0 -329.333 47.667 -430 143c-99.333 96 -155.333 243.667 -168 443z" />
    <glyph glyph-name="FDW27" horiz-adv-x="2834" 
d="M2445 1417l-1319 -0.000976562v-1085h1319v368h-688v308h1102v-598c0 -157.333 -31.333 -265.333 -94 -324c-62.667 -57.333 -181.667 -86 -357 -86h-1253c-176 0 -294.667 28.667 -356 86c-62.667 57.333 -94 165.333 -94 324v913c0 157.333 31.333 265.333 94 324
c61.333 57.333 180 86 356 86h1253c175.333 0 294.333 -28.667 357 -86c62.667 -55.333 94 -156.666 94 -303.999v-45l-414 -69v188zM1180 2597l240.999 -0.000976562c8.66699 -102 40.334 -175.667 95.001 -221c59.333 -46.667 146.666 -70 261.999 -70
c116 0 202 23.333 258 70c58.667 46.667 90 120.334 94 221.001h237c-12 -197.333 -66.333 -345 -163 -443c-96.667 -95.333 -238.667 -143 -426 -143s-330.666 47.667 -429.999 143c-100 96 -156 243.667 -168 443z" />
    <glyph glyph-name="FDW28" horiz-adv-x="1573" 
d="M1106 0v2114h491l5 -2114h-496zM1139 2425v479h430v-479h-430z" />
    <glyph glyph-name="space" unicode=" " horiz-adv-x="3412" 
 />
    <glyph glyph-name="exclam" unicode="!" horiz-adv-x="1573" 
d="M1409 586l70.001 0.000976562c39.333 0 66.666 -9.66699 81.999 -29c13.333 -22 20 -59 20 -111v-307c0 -57.333 -8.33301 -94 -25 -110c-14.667 -19.333 -63.667 -29 -147 -29h-360c-40.667 0 -66.667 9.66699 -78 29c-16.667 19.333 -25 56 -25 110v307
c0 57.333 8.33301 95.666 25 114.999c16 16.667 65 25 147 25h291zM1102 860.001l-152 1254h631l-151 -1254h-328z" />
    <glyph glyph-name="quotedbl" unicode="&#x22;" horiz-adv-x="1229" 
d="M1237 2871v-1110h-279v1110h279zM647 2871v-1110h-278v1110h278z" />
    <glyph glyph-name="numbersign" unicode="#" horiz-adv-x="3150" 
d="M2122 1716h-520l-185 -528h520zM2032 2916l-324 -909h512l328 909h327l-319 -909h602l-102 -291h-607l-184 -524h643l-102 -295h-643l-324 -905h-332l324 905h-516l-324 -905h-332l320 905h-619l107 295h618l185 524h-660l103 291h663l324 909h332z" />
    <glyph glyph-name="dollar" unicode="$" horiz-adv-x="3166" 
d="M2200 319h610v562h-610v-562zM1860 1249v561h-590v-561h590zM2761 1810l-560.999 -0.000976562v-561h458c206.667 0 346 -35.333 418 -106c74 -70 111 -201 111 -393v-250c0 -192.667 -37 -324 -111 -394c-72 -70.667 -211.333 -106 -418 -106h-458v-532h-340v532h-521
c-194 0 -330.333 32.667 -409 98c-76.667 68.667 -115 183.334 -115 344.001v90l410 70v-283h635v562h-439c-204.667 0 -342.334 35.333 -413.001 106c-74 70 -111 201 -111 393v234c0 192 37 323 111 393c70 71.333 207.667 107 413 107h439v417h340v-417h421
c190.667 0 326 -31.667 406 -95c79.333 -62 119 -168.333 119 -319v-94l-385 -86v290z" />
    <glyph glyph-name="percent" unicode="%" horiz-adv-x="3273" 
d="M2847 2179l-1782 -2245h-266l1781 2245h267zM2019 565c0 177.333 60.333 326.334 181 447.001c124 120 272.667 180 446 180c177.333 0 326 -60 446 -180c123.333 -123.333 185 -272.333 185 -447c0 -168.667 -63 -316 -189 -442s-273.333 -189 -442 -189
s-316 63 -442 189c-123.333 123.333 -185 270.666 -185 441.999zM2298 561.001c0 -95.333 34 -177.333 102 -246c68.667 -68 150.667 -102 246 -102c98 0 181.167 34 249.5 102s102.5 150 102.5 246c0 98.667 -34 182 -102 250s-151.333 102 -250 102
c-97.333 0 -178 -34 -242 -102c-70.667 -72 -106 -155.333 -106 -250zM647 1548c0 -95.333 34.168 -177.167 102.501 -245.5s150.166 -102.5 245.499 -102.5c98.667 0 182 34.333 250 103c68.667 68 103 149.667 103 245s-34.333 177.333 -103 246
c-70 71.333 -153.333 107 -250 107c-93.333 0 -175 -35.667 -245 -107c-68.667 -68.667 -103 -150.667 -103 -246zM369.001 1556c0 176.667 61.332 324.334 183.999 443.001c120 120 268.667 180 446 180c174 0 323 -60 447 -180c120 -120 180 -267.667 180 -443
c0 -170.667 -61.333 -319.334 -184 -446.001c-125.333 -125.333 -273 -188 -443 -188c-169.333 0 -316.666 62.667 -441.999 188s-188 274 -188 446z" />
    <glyph glyph-name="ampersand" unicode="&#x26;" horiz-adv-x="3375" 
d="M1167 369h979l197 168l-635 528l-541 -336v-360zM1282 0c-202.667 0 -342.001 35.332 -418.001 105.999c-73.333 70 -110 201.333 -110 394v139c0 89.333 16.333 160.333 49 213c28 53.333 99 113.333 213 180l430 258c-64 54.667 -109 106.667 -135 156
c-30 50.667 -45 105.334 -45 164.001v119c0 138 38 237.667 114 299c78.667 57.333 215.334 86 410.001 86h426c203.333 0 341.333 -30.333 414 -91c73.333 -61.333 110 -173 110 -335v-127l-381 -66v283h-692v-152l995 -827l492 409l278 -241l-487 -406l668 -561h-643
l-349 295l-188 -168c-57.333 -49.333 -110.666 -82 -160 -98c-45.333 -19.333 -124.333 -29 -237 -29h-754z" />
    <glyph glyph-name="quotesingle" unicode="'" horiz-adv-x="635" 
d="M647 2871v-1110h-278v1110h278z" />
    <glyph glyph-name="parenleft" unicode="(" horiz-adv-x="1356" 
d="M1049 2195l438 0.000976562c-134 -198.667 -233.667 -392.334 -299 -581.001c-65.333 -187.333 -98 -373 -98 -557c0 -185.333 32.667 -371 98 -557c64 -186.667 163.667 -380.667 299 -582h-438c-114 176.667 -203 363.667 -267 561c-57.333 190 -86 382.667 -86 578
c0 194 28.667 387.667 86 581c64 195.333 153 381 267 557z" />
    <glyph glyph-name="parenright" unicode=")" horiz-adv-x="1356" 
d="M901 2195c120.667 -186.667 210.666 -373.667 269.999 -561c57.333 -190 86 -382.333 86 -577s-28.667 -387.334 -86 -578.001c-60 -188 -150 -375 -270 -561h-438c132.667 198 232.334 392 299.001 582c65.333 188.667 98 374.334 98 557.001
c0 181.333 -32.667 367 -98 557c-67.333 192 -167 385.667 -299 581h438z" />
    <glyph glyph-name="asterisk" unicode="*" 
d="M1393 1315l-271 -492l-241 176l385 410l-545 107l90 278l504 -242l-58 562h271l-62 -562l504 242l94 -278l-548 -107l385 -410l-238 -176z" />
    <glyph glyph-name="plus" unicode="+" horiz-adv-x="3412" 
d="M2380 2441v-1081h1057v-279h-1057v-1081h-283v1081h-1057v279h1057v1081h283z" />
    <glyph glyph-name="comma" unicode="," horiz-adv-x="1356" 
d="M1184 635h69c35.333 0 61.333 -11 78 -33c14 -23.333 21 -63 21 -119v-422l-406 -606h-241l348 623h-234c-34 0 -60 11 -78 33c-13.333 22 -20 61.333 -20 118v254c0 66 8 107 24 123c12 19.333 60 29 144 29h295z" />
    <glyph glyph-name="hyphen" unicode="-" horiz-adv-x="1352" 
d="M401 881v422h955v-422h-955z" />
    <glyph glyph-name="period" unicode="." horiz-adv-x="1356" 
d="M1200 635h73.999c34 0 60 -11 78 -33c13.333 -22 20 -61.667 20 -119v-331c0 -62 -8 -103 -24 -123c-15.333 -19.333 -64.666 -29 -147.999 -29h-364c-35.333 0 -61.333 11 -78 33c-14 21.333 -21 61 -21 119v331c0 62.667 8.33301 103.667 25 123
c14.667 19.333 63.667 29 147 29h291z" />
    <glyph glyph-name="slash" unicode="/" horiz-adv-x="1139" 
d="M-201 -66l1065 2245h271l-1074 -2245h-262z" />
    <glyph glyph-name="zero" unicode="0" horiz-adv-x="3166" 
d="M1233 381h1511v1372h-1511v-1372zM791 1614c0 197.333 34 329.667 102 397c68.667 68.667 195.667 103 381 103h1429c188.667 0 317 -34.333 385 -103c66 -68.667 99 -201 99 -397v-1114c0 -192.667 -33 -324 -99 -394c-70.667 -70.667 -199 -106 -385 -106h-1429
c-182 -0 -309 35.333 -381 106c-68 68 -102 199.333 -102 394v1114z" />
    <glyph glyph-name="one" unicode="1" horiz-adv-x="3166" 
d="M2499 0v1712h-451v283l897 135v-2130h-446z" />
    <glyph glyph-name="two" unicode="2" horiz-adv-x="3166" 
d="M1061 1700c0 156.667 32.667 266 98 328c66.667 57.333 195 86 385 86h1086c190 0 318.333 -28.667 385 -86c65.333 -62 98 -171.333 98 -328v-135c0 -104 -15 -183.333 -45 -238c-34 -54.667 -110.333 -118.667 -229 -192l-1242 -754h1229v311l389 -110v-168
c0 -158 -32.667 -267.333 -98 -328c-65.333 -57.333 -193.666 -86 -385 -86h-1778v193c0 88 19.333 160.333 58 217c43.333 52 113 108 209 168l1462 901v274h-1204v-434l-418 106v275z" />
    <glyph glyph-name="three" unicode="3" horiz-adv-x="3166" 
d="M1405 0c-191.333 0 -319.665 28.666 -384.998 85.999c-65.333 60.667 -98 170 -98 328v172l434 90v-295h1138c82 0 136.667 12.333 164 37c27.333 22.667 41 73 41 151v156c0 76.667 -13.667 128.667 -41 156c-28.667 24.667 -83.334 37 -164.001 37h-712v344h635
c78 0 131 12 159 36c27.333 27.333 41 79.333 41 156v107c0 80.667 -13.667 132.334 -41 155.001c-27.333 24.667 -80.333 37 -159 37h-1045v-262l-418 78v131c0 156.667 33 266 99 328c65.333 57.333 193.666 86 384.999 86h1142c190.667 0 319.334 -28.667 386 -86
c65.333 -62 98 -171.333 98 -328v-193c0 -122.667 -30.167 -214.167 -90.5 -274.5s-166.833 -102.5 -319.5 -126.5c172.667 -16.667 297 -59 373 -127c79.333 -71.333 119 -172.333 119 -303v-221c0 -177.333 -38.333 -296.333 -115 -357c-74.667 -65.333 -207 -98 -397 -98
h-1229z" />
    <glyph glyph-name="four" unicode="4" horiz-adv-x="3166" 
d="M2281 -25v492h-1601v352l1585 1319h463v-1319h512v-352h-512v-492h-447zM2281 819v946l-1155 -946h1155z" />
    <glyph glyph-name="five" unicode="5" horiz-adv-x="3166" 
d="M1090 942l118.001 1172h1827l-37 -361h-1474l-49 -410c153.333 17.333 313 31 479 41c134 8.66699 259.667 13 377 13c345.333 0 607.333 -60 786 -180c174.667 -118 262 -297 262 -537c0 -250.667 -91.333 -431 -274 -541c-188.667 -112 -485 -168 -889 -168
c-208.667 0 -402.667 8.33301 -582 25c-169.333 12 -315.333 32.333 -438 61l-106 410c228 -40.667 423 -68 585 -82c178.667 -19.333 355 -29 529 -29c265.333 0 452.333 26 561 78c106.667 53.333 160 142 160 266c0 116.667 -52 200 -156 250
c-103.333 52 -282.333 78 -537 78c-138.667 0 -314.667 -6.66699 -528 -20c-234.667 -20.667 -439.334 -42.667 -614.001 -66z" />
    <glyph glyph-name="six" unicode="6" horiz-adv-x="3166" 
d="M1389 954c-3.33301 -10.667 -4.99805 -28.333 -4.99805 -53c-2.66699 -10.667 -4 -34 -4 -70c0 -204 27.333 -329.333 82 -376c54.667 -49.333 173.667 -74 357 -74h589c147.333 0 248.666 17.667 303.999 53c54 38 81 105 81 201v115c0 96 -31.333 162.667 -94 200
c-59.333 36 -183.333 54 -372 54c-138 0 -291 -4.33301 -459 -13c-166.667 -8 -326.334 -20.333 -479.001 -37zM1417 1274c186 28 344.332 47.001 474.999 57.001c147.333 11.333 300.333 17 459 17c338 0 571.667 -39.667 701 -119c128 -79.333 192 -221.333 192 -426v-287
c0 -174.667 -58.667 -304.334 -176 -389.001s-300.333 -127 -549 -127h-893c-268.667 0 -451.667 46.333 -549 139c-98 94 -147 264.667 -147 512v279c0 392.667 136.333 697 409 913c274 216 657.667 324 1151 324h62c7.33301 -1.33301 22 -2.83301 44 -4.5l46 -3.5
l291 -340h-135c-450 0 -775 -41 -975 -123c-201.333 -82 -336.666 -222.667 -405.999 -422z" />
    <glyph glyph-name="seven" unicode="7" horiz-adv-x="3166" 
d="M1593 -37l1139 1790h-1397v-455l-446 78v738h2347v-340l-1106 -1811h-537z" />
    <glyph glyph-name="eight" unicode="8" horiz-adv-x="3166" 
d="M2654 2114c191.333 0 319.666 -28.668 385 -86.001c62.667 -62.667 94 -172 94 -328v-193c0 -123.333 -30 -214.666 -90 -273.999c-61.333 -62.667 -166.333 -107.667 -315 -135c156.667 -17.333 271.334 -59.666 344 -126.999c74 -70 111 -168.333 111 -295v-221
c0 -172 -37 -291 -111 -357c-74.667 -65.333 -208.334 -98 -401.001 -98h-1352c-191.333 0 -323.666 32.667 -396.999 98c-76.667 60.667 -115 179.667 -115 357v221c0 126.667 37 225 111 295c71.333 67.333 184.333 109.666 339 126.999
c-147.333 27.333 -252.333 72.333 -315 135c-60 60 -90 151.333 -90 274v193c0 156.667 32.667 266 98 328c66.667 57.333 195 86 385 86h1319zM2490 1753l-986.999 -0.000976562c-80.667 0 -135.334 -12.333 -164.001 -37c-27.333 -27.333 -41 -79 -41 -155v-107
c0 -77.333 13.667 -127.666 41 -150.999c27.333 -27.333 82 -41 164 -41h987c77.333 0 130.666 12 160 36c24.667 28.667 37 80.667 37 156v107c0 79.333 -12.333 131 -37 155c-28.667 24.667 -82 37 -160 37zM2535 917.998l-1081 0.000976562
c-76.667 0 -130 -12.333 -160 -37c-27.333 -24.667 -41 -76.667 -41 -156v-156c0 -76 12.333 -126.333 37 -151c28.667 -24.667 83.334 -37 164.001 -37h1081c82 0 136.667 12.333 164 37c22 25.333 33 75.666 33 150.999v156c0 79.333 -12.333 131.333 -37 156
c-30 24.667 -83.333 37 -160 37z" />
    <glyph glyph-name="nine" unicode="9" horiz-adv-x="3166" 
d="M2724 840c-131.333 -21.333 -285.668 -39.333 -463.001 -54c-138.667 -10.667 -295.667 -16 -471 -16c-337.333 0 -570.666 39.667 -699.999 119c-128.667 79.333 -193 221.333 -193 426v282c0 179.333 58.667 309.333 176 390c113.333 84.667 295 127 545 127h893
c268 0 451 -46.833 549 -140.5s147 -264.167 147 -511.5v-278c0 -393.333 -136.333 -698 -409 -914c-270.667 -212.667 -654.334 -319 -1151 -319h-91c-26.667 0 -47 1.33301 -61 4l-291 340h135c452.667 0 779 41 979 123c201.333 82 336.666 222.667 406 422zM2748 1163
c1.33301 6 3.5 17.499 6.5 34.499s5.16699 28.833 6.5 35.5v57c0 204.667 -27.333 334.334 -82 389.001c-52 49.333 -172.333 74 -361 74h-585c-150 0 -252.667 -17.667 -308 -53c-54.667 -38 -82 -107.667 -82 -209v-119c0 -101.333 31.667 -171 95 -209
c58 -35.333 183.667 -53 377 -53c132 0 278 4 438 12c166.667 8 331.667 21.667 495 41z" />
    <glyph glyph-name="colon" unicode=":" horiz-adv-x="1356" 
d="M1200 1737l74 0.000976562c36.667 0 62.667 -9.66699 78 -29c13.333 -22 20 -63 20 -123v-332c0 -60.667 -8 -101.667 -24 -123c-16 -18.667 -65.333 -28 -148 -28h-364c-35.333 0 -61.333 11 -78 33c-14 21.333 -21 60.666 -21 117.999v332
c0 62.667 8.33301 103.667 25 123c14.667 19.333 63.667 29 147 29h291zM1200 635.001h73.999c34 0 60 -11 78 -33c13.333 -22 20 -61.667 20 -119v-331c0 -62 -8 -103 -24 -123c-15.333 -19.333 -64.666 -29 -147.999 -29h-364c-35.333 0 -61.333 11 -78 33
c-14 21.333 -21 61 -21 119v331c0 62.667 8.33301 103.667 25 123c14.667 19.333 63.667 29 147 29h291z" />
    <glyph glyph-name="semicolon" unicode=";" horiz-adv-x="1356" 
d="M1184 1737h69c37.333 0 63.333 -9.66699 78 -29c14 -23.333 21 -64.333 21 -123v-332c0 -62 -7 -103 -21 -123c-14.667 -18.667 -63.667 -28 -147 -28h-365c-34 0 -60 11 -78 33c-13.333 22 -20 61.333 -20 118v332c0 66 8 107 24 123c12 19.333 60 29 144 29h295z
M1184 635h69c35.333 0 61.333 -11 78 -33c14 -23.333 21 -63 21 -119v-422l-406 -606h-241l348 623h-234c-34 0 -60 11 -78 33c-13.333 22 -20 61.333 -20 118v254c0 66 8 107 24 123c12 19.333 60 29 144 29h295z" />
    <glyph glyph-name="less" unicode="&#x3c;" horiz-adv-x="3412" 
d="M3437 2011l-1938 -790l1938 -787v-307l-2356 967v258l2356 966v-307z" />
    <glyph glyph-name="equal" unicode="=" horiz-adv-x="3412" 
d="M3437 963v-279h-2397v279h2397zM3437 1757v-278h-2397v278h2397z" />
    <glyph glyph-name="greater" unicode="&#x3e;" horiz-adv-x="3412" 
d="M3437 1352v-258l-2356 -967v307l1942 787l-1942 790v307z" />
    <glyph glyph-name="question" unicode="?" horiz-adv-x="2712" 
d="M1888 586l73.999 -0.000976562c36.667 0 61.334 -8.33301 74.001 -25c13.333 -22 20 -60.333 20 -115v-307c0 -56 -8 -94 -24 -114c-16.667 -16.667 -64.667 -25 -144 -25h-360c-40.667 0 -66.667 9.66699 -78 29c-16.667 20.667 -25 57.334 -25 110.001v307
c0 56 8.33301 94.333 25 115c16 16.667 63.667 25 143 25h295zM1536 855.999v295.001l709 430v184h-942v-266l-414 66v114c0 144 36.667 253.333 110 328c75.333 71.333 186 107 332 107h836c168.667 0 297 -31.667 385 -95c82 -64.667 123 -164.334 123 -299.001v-336
l-717 -417v-111h-422z" />
    <glyph glyph-name="at" unicode="@" horiz-adv-x="4096" 
d="M2789 1708l115.001 229h262l-291 -1151l-6.5 -33l-5.5 -28c-2.66699 -13.333 -4 -32.333 -4 -57c0 -62 17.667 -108.667 53 -140c34 -32.667 83.333 -49 148 -49c64 0 132.333 17.667 205 53c74.667 38 145.667 88.667 213 152
c105.333 101.333 188.333 225.666 249 372.999c60 142 90 297.667 90 467c0 346 -126.667 625.667 -380 839c-252.667 216 -586 324 -1000 324c-168 0 -331.667 -19 -491 -57c-147.333 -36 -288 -93.333 -422 -172c-126.667 -76 -239.5 -164.167 -338.5 -264.5
s-184.167 -211.5 -255.5 -333.5c-139.333 -250.667 -209 -524 -209 -820c0 -237.333 41 -442 123 -614c81.333 -174 209.666 -328.333 384.999 -463c137.333 -103.333 295.666 -181 474.999 -233c178 -57.333 369 -86 573 -86c225.333 0 445.333 32.667 660 98
c211.333 66 405 160.333 581 283l111 -164c-192.667 -144.667 -401.667 -256.667 -627 -336c-224.667 -74 -458 -111 -700 -111c-249.333 0 -481.333 31.333 -696 94c-209.333 62 -396.666 155 -561.999 279c-205.333 161.333 -358 344.333 -458 549
c-101.333 205.333 -152 441.333 -152 708c0 220.667 34.333 429.667 103 627c68 194.667 169 373.667 303 537c191.333 236 426 416 704 540c276 123.333 579.333 185 910 185c222 0 428 -30 618 -90c200.667 -63.333 370 -148 508 -254c172 -134.667 304.333 -289 397 -463
c87.333 -178.667 131 -367 131 -565c0 -239.333 -42.333 -449.666 -127 -630.999c-87.333 -188 -210 -345 -368 -471c-92.667 -76 -192.334 -132 -299 -168c-116 -38.667 -226.667 -58 -332 -58c-132 0 -231.667 27.333 -299 82c-68.667 52.667 -103 130.667 -103 234v37
c-72 -116.667 -158 -204 -258 -262c-96.667 -57.333 -211.334 -86 -344 -86c-204.667 0 -360.334 57.333 -467.001 172c-106 110 -159 273.667 -159 491c0 316 91.333 579.667 274 791c184.667 210 411.334 315 680.001 315c111.333 0 208.333 -24.667 291 -74
c80 -50 144 -125 192 -225zM2601 950l119 470.999c-20.667 116.667 -65.667 208.334 -135 275.001c-72 62.667 -159.667 94 -263 94c-180.667 0 -334.667 -86 -462 -258c-126 -174.667 -189 -387.667 -189 -639c0 -137.333 32.667 -245.333 98 -324
c61.333 -76 153 -114 275 -114c131.333 0 247.333 46.333 348 139c102 90 171.667 208.667 209 356z" />
    <glyph glyph-name="A" unicode="A" horiz-adv-x="3158" 
d="M1225 844h925l-458 860zM279 0l1191 2114h476l1212 -2114h-553l-254 463h-1339l-246 -463h-487z" />
    <glyph glyph-name="B" unicode="B" horiz-adv-x="3252" 
d="M2712 1769h-1123v-503h1123c82 0 140.667 10.667 176 32c32.667 25.333 49 65 49 119v201c0 54 -16.333 93.667 -49 119c-35.333 21.333 -94 32 -176 32zM2712 918h-1123v-537h1123c94 0 156.667 13.667 188 41c32.667 28.667 49 77.667 49 147v160
c0 70 -16.333 119.333 -49 148c-32 27.333 -94.667 41 -188 41zM1106 0v2114h1810c165.333 0 287 -33 365 -99c73.333 -64.667 110 -168.334 110 -311.001v-258c0 -98.667 -31.333 -179.334 -94 -242.001c-64.667 -64.667 -154.667 -102.667 -270 -114
c121.333 -16.667 215.666 -60.667 283 -132c65.333 -69.333 98 -160.666 98 -273.999v-270c0 -137.333 -52 -241.333 -156 -312c-100.667 -68 -256.334 -102 -467 -102h-1679z" />
    <glyph glyph-name="C" unicode="C" horiz-adv-x="3281" 
d="M2834 1737l-1327 -0.000976562v-1340h1327v455l492 -102v-250c0 -191.333 -35.667 -322.666 -107 -393.999c-74.667 -70.667 -213.667 -106 -417 -106h-1262c-202.667 -0 -342 35.333 -418 106c-70.667 72 -106 203.333 -106 394v1114c0 190 35.333 321 106 393
c75.333 71.333 214.666 107 417.999 107h1262c203.333 0 342.333 -35.667 417 -107c71.333 -71.333 107 -202.333 107 -393v-201l-492 -78v402z" />
    <glyph glyph-name="D" unicode="D" horiz-adv-x="3469" 
d="M1597 397h635c336.667 0 577 53.333 721 160c142 100.667 213 274 213 520c0 218.667 -58.667 382.667 -176 492c-121.333 112 -294.666 168 -520 168h-873v-1340zM1106 0v2114h1360c388 0 687 -90.333 897 -271c207.333 -182.667 311 -440.667 311 -774
c0 -195.333 -41 -372.666 -123 -531.999c-81.333 -158.667 -196 -283 -344 -373c-92.667 -57.333 -206 -98.333 -340 -123c-131.333 -27.333 -307.333 -41 -528 -41h-1233z" />
    <glyph glyph-name="E" unicode="E" horiz-adv-x="3092" 
d="M1106 0v2114h2163v-361h-1672v-471h975v-360h-975v-525h1692v-397h-2183z" />
    <glyph glyph-name="F" unicode="F" horiz-adv-x="2748" 
d="M1106 0v2114h2138v-369h-1647v-557h889v-385h-889v-803h-491z" />
    <glyph glyph-name="G" unicode="G" horiz-adv-x="3502" 
d="M3043 1737h-1536v-1340h1536v471h-802v361h1282v-729c0 -191.333 -35.667 -322.666 -107 -393.999c-76 -70.667 -215.333 -106 -418 -106h-1458c-202.667 0 -342 35.333 -418 106c-70.667 72 -106 203.333 -106 394v1114c0 190 35.333 321 106 393
c75.333 71.333 214.666 107 417.999 107h1458c203.333 0 341.333 -34.333 414 -103c74 -68.667 111 -194.334 111 -377.001v-49l-480 -86v238z" />
    <glyph glyph-name="H" unicode="H" horiz-adv-x="3604" 
d="M1106 0v2114h491v-820h1536v820h496v-2114h-496v909h-1536v-909h-491z" />
    <glyph glyph-name="I" unicode="I" horiz-adv-x="1573" 
d="M1106 0v2114h491l5 -2114h-496z" />
    <glyph glyph-name="J" unicode="J" horiz-adv-x="2732" 
d="M1188 0c-202.667 0 -342 35.333 -418 106c-70.667 70.667 -106 202 -106 394v438l495 94v-635h967v1717h491v-1614c0 -190.667 -35.333 -322 -106 -394c-76 -70.667 -215.333 -106 -418 -106h-905z" />
    <glyph glyph-name="K" unicode="K" horiz-adv-x="3252" 
d="M1106 0v2114h496v-881l1171 881h713l-1401 -996l1573 -1118h-791l-1265 930v-930h-496z" />
    <glyph glyph-name="L" unicode="L" horiz-adv-x="2798" 
d="M1106 0v2114h491v-1717h1586v-397h-2077z" />
    <glyph glyph-name="M" unicode="M" horiz-adv-x="3793" 
d="M1098 0v2114h397l995 -1278l975 1278h393v-2114h-454v1307c0 38 1.33301 69.333 4 94c3.33301 32.667 7.33301 76.334 12 131.001c-14 -26 -26.5 -50.333 -37.5 -73s-21.5 -43.334 -31.5 -62.001c-25.333 -45.333 -43.333 -74 -54 -86l-794 -1057h-99l-794 1061
c-25.333 32.667 -50 71 -74 115c-27.333 44 -45 78 -53 102c4 -44.667 8 -85.667 12 -123v-102v-1307h-397z" />
    <glyph glyph-name="N" unicode="N" horiz-adv-x="3559" 
d="M1098 0v2114h336l1486 -1246c60.667 -46 106 -84 136 -114c27.333 -28 62.666 -66.333 106 -115c-4 60.667 -7 108.5 -9 143.5s-4.33301 70.5 -7 106.5c-2.66699 32.667 -4 71 -4 115v1110h442v-2114h-336l-1552 1307c-44.667 38.667 -77.667 68.667 -99 90
c-35.333 35.333 -61 62.666 -77 81.999c1.33301 -24 4 -56 8 -96s6.66699 -69.667 8 -89c2.66699 -40.667 4 -91 4 -151v-1143h-442z" />
    <glyph glyph-name="O" unicode="O" horiz-adv-x="3596" 
d="M1016 1614c0 190 35.334 321 106.001 393c75.333 71.333 214.666 107 417.999 107h1557c205.333 0 343 -35.667 413 -107c74 -70 111 -201 111 -393v-1114c0 -192.667 -37 -324 -111 -394c-70.667 -70.667 -208.334 -106 -413 -106h-1557
c-202.667 -0 -342 35.333 -418 106c-70.667 72 -106 203.333 -106 394v1114zM1507 397h1622v1340h-1622v-1340z" />
    <glyph glyph-name="P" unicode="P" horiz-adv-x="3043" 
d="M2695 1749l-1106 -0.00195312v-561h1106c86 0 144.667 12.333 176 37c30 24.667 45 68.334 45 131.001v225c0 62.667 -15 106.334 -45 131.001c-31.333 24.667 -90 37 -176 37zM1106 -0.00195312v2114h1806c166 0 289 -31.667 369 -95
c73.333 -64.667 110 -169.667 110 -315v-471c0 -142.667 -36.667 -246.334 -110 -311.001c-78 -66 -201 -99 -369 -99h-1323v-823h-483z" />
    <glyph glyph-name="Q" unicode="Q" horiz-adv-x="3596" 
d="M1016 1614c0 190 35.334 321 106.001 393c75.333 71.333 214.666 107 417.999 107h1557c205.333 0 343 -35.667 413 -107c74 -70 111 -201 111 -393v-1114c0 -192.667 -37 -324 -111 -394c-70.667 -70.667 -208.334 -106 -413 -106h-230l266 -545h-487l-238 545h-868
c-202.667 -0 -342 35.333 -418 106c-70.667 72 -106 203.333 -106 394v1114zM1507 397h725l-196 459l356 143l287 -602h450v1340h-1622v-1340z" />
    <glyph glyph-name="R" unicode="R" horiz-adv-x="3285" 
d="M2695 1749l-1106 -0.000976562v-590h1106c86 0 144.667 12.333 176 37c30 26 45 69.667 45 131v254c0 62.667 -15 106.334 -45 131.001c-31.333 24.667 -90 37 -176 37zM1106 -0.000976562v2114h1806c166 0 289 -31.667 369 -95c73.333 -64.667 110 -169.667 110 -315
v-496c0 -142 -36.667 -245.667 -110 -311c-77.333 -65.333 -200.333 -98 -369 -98h-274l975 -799h-705l-852 799h-467v-799h-483z" />
    <glyph glyph-name="S" unicode="S" horiz-adv-x="3314" 
d="M2867 1745h-1384v-455h1319c205.333 0 346 -35.333 422 -106c70.667 -72 106 -203 106 -393v-291c0 -190.667 -35.333 -322 -106 -394c-76 -70.667 -216.667 -106 -422 -106h-1307c-206.667 -0 -346 35.333 -418 106c-73.333 70 -110 201.333 -110 394v57l434 90v-250
h1495v484h-1319c-204 0 -342 35.333 -414 106c-73.333 70 -110 201 -110 393v234c0 192 36.667 323 110 393c71.333 71.333 209.333 107 414 107h1200c199.333 0 337.333 -34.333 414 -103c73.333 -68.667 110 -188.667 110 -360v-45l-434 -103v242z" />
    <glyph glyph-name="T" unicode="T" horiz-adv-x="2560" 
d="M1589 1737v-1737h-491v1737h-971v377h2437v-377h-975z" />
    <glyph glyph-name="U" unicode="U" horiz-adv-x="3465" 
d="M1597 2114l0.000976562 -1717h1401v1717h492v-1614c0 -191.333 -35.667 -322.666 -107 -393.999c-74.667 -70.667 -213.667 -106 -417 -106h-1336c-204.667 -0 -342.334 35.333 -413.001 106c-74 70 -111 201.333 -111 394v1614h491z" />
    <glyph glyph-name="V" unicode="V" horiz-adv-x="2789" 
d="M1286 0l-1220 2114h561l856 -1528l815 1528h491l-1163 -2114h-340z" />
    <glyph glyph-name="W" unicode="W" horiz-adv-x="3793" 
d="M1143 0l-815 2114h508l536 -1418l561 1418h344l574 -1418l512 1418h438l-815 -2114h-332l-581 1462l-590 -1462h-340z" />
    <glyph glyph-name="X" unicode="X" horiz-adv-x="2941" 
d="M426 0l1004 1085l-1020 1029h651l676 -717l643 717h565l-922 -971l1139 -1143h-668l-774 819l-712 -819h-582z" />
    <glyph glyph-name="Y" unicode="Y" horiz-adv-x="2753" 
d="M1163 0v946l-1097 1168h655l725 -811l729 811h578l-1094 -1156v-958h-496z" />
    <glyph glyph-name="Z" unicode="Z" horiz-adv-x="2793" 
d="M512 0v229l1479 1508h-1332v377h2122v-209l-1499 -1508h1499v-397h-2269z" />
    <glyph glyph-name="bracketleft" unicode="[" horiz-adv-x="1356" 
d="M1696 -66h-905v2245h905v-291h-512v-1650h512v-304z" />
    <glyph glyph-name="backslash" unicode="\" horiz-adv-x="1139" 
d="M70 2179l1065 -2245h-263l-1073 2245h271z" />
    <glyph glyph-name="bracketright" unicode="]" horiz-adv-x="1356" 
d="M135 -66v304h512v1650h-512v291h905v-2245h-905z" />
    <glyph glyph-name="asciicircum" unicode="^" horiz-adv-x="4096" 
d="M3113 2916l1020 -1114h-361l-843 840l-848 -840h-361l1020 1114h373z" />
    <glyph glyph-name="underscore" unicode="_" 
d="M2048 -680v-287h-2048v287h2048z" />
    <glyph glyph-name="grave" unicode="`" 
d="M1806 1958h-262l-590 692h443z" />
    <glyph glyph-name="a" unicode="a" horiz-adv-x="2646" 
d="M250 0l1028 1733h405l1045 -1733h-475l-217 381h-1147l-217 -381h-422zM1069 696h795l-406 721z" />
    <glyph glyph-name="b" unicode="b" horiz-adv-x="2691" 
d="M791 0v1733h1552c146 0 251 -26 315 -78c63.333 -54 95 -140 95 -258v-209c0 -79.333 -24.667 -143.666 -74 -192.999c-52 -52 -125.667 -86 -221 -102c100 -16 176.333 -53 229 -111c52 -60 78 -133.667 78 -221v-221c0 -112 -45 -196.667 -135 -254
c-86.667 -57.333 -220.667 -86 -402 -86h-1437zM2150 1450h-946v-410h946c74.667 0 124 9.66699 148 29c27.333 20 41 51.333 41 94v164c0 45.333 -12.333 78 -37 98c-28.667 16.667 -79.334 25 -152 25zM2150 753.999h-946v-443h946c78.667 0 133.334 11 164 33
c27.333 23.333 41 64.333 41 123v131c0 58.667 -13.667 99.667 -41 123c-30.667 22 -85.334 33 -164 33z" />
    <glyph glyph-name="c" unicode="c" horiz-adv-x="2638" 
d="M2265 1417h-1139v-1085h1139v368l426 -86v-204c0 -157.333 -31.333 -265.333 -94 -324c-62.667 -57.333 -183 -86 -361 -86h-1081c-176 0 -294.667 28.667 -356 86c-62.667 57.333 -94 165.333 -94 324v913c0 157.333 31.333 265.333 94 324c61.333 57.333 180 86 356 86
h1081c178 0 298.333 -28.667 361 -86c62.667 -59.333 94 -167.333 94 -324v-168l-426 -61v323z" />
    <glyph glyph-name="d" unicode="d" horiz-adv-x="2843" 
d="M1217 324h544c294.667 0 502.167 43.5 622.5 130.5s180.5 233.167 180.5 438.5c0 178.667 -49 311 -147 397c-100.667 87.333 -252.334 131 -455 131h-745v-1097zM791 0v1733h1167c333.333 0 590 -74 770 -222c180 -150.667 270 -363.667 270 -639
c0 -294.667 -95.333 -513 -286 -655c-191.333 -144.667 -478.333 -217 -861 -217h-1060z" />
    <glyph glyph-name="e" unicode="e" horiz-adv-x="2490" 
d="M791 0v1733h1859v-308h-1433v-376h835v-299h-835v-426h1454v-324h-1880z" />
    <glyph glyph-name="f" unicode="f" horiz-adv-x="2253" 
d="M791 0v1733h1839v-312h-1413v-450h761v-320h-761v-651h-426z" />
    <glyph glyph-name="g" unicode="g" horiz-adv-x="2834" 
d="M2445 1417l-1319 -0.000976562v-1085h1319v368h-688v308h1102v-598c0 -157.333 -31.333 -265.333 -94 -324c-62.667 -57.333 -181.667 -86 -357 -86h-1253c-176 0 -294.667 28.667 -356 86c-62.667 57.333 -94 165.333 -94 324v913c0 157.333 31.333 265.333 94 324
c61.333 57.333 180 86 356 86h1253c175.333 0 294.333 -28.667 357 -86c62.667 -55.333 94 -156.666 94 -303.999v-45l-414 -69v188z" />
    <glyph glyph-name="h" unicode="h" horiz-adv-x="2941" 
d="M791 0v1733h426v-660h1318v660h422v-1733h-422v729h-1318v-729h-426z" />
    <glyph glyph-name="i" unicode="i" horiz-adv-x="1192" 
d="M791 0v1733h417v-1733h-417z" />
    <glyph glyph-name="j" unicode="j" horiz-adv-x="2294" 
d="M918 0c-179.333 0 -299.667 28.667 -361 86c-62.667 58.667 -94 166.667 -94 324v360l426 78v-524h827v1409h426v-1323c0 -157.333 -31.333 -265.333 -94 -324c-61.333 -57.333 -181.333 -86 -360 -86h-770z" />
    <glyph glyph-name="k" unicode="k" horiz-adv-x="2540" 
d="M791 0v1733h426v-701l1011 701h611l-1197 -803l1332 -930h-668l-1089 782v-782h-426z" />
    <glyph glyph-name="l" unicode="l" horiz-adv-x="2261" 
d="M791 0v1733h426v-1409h1359v-324h-1785z" />
    <glyph glyph-name="m" unicode="m" horiz-adv-x="3142" 
d="M791 0v1733h335l852 -1028l844 1028h340v-1733h-393v1192l-774 -983h-82l-787 954v-1163h-335z" />
    <glyph glyph-name="n" unicode="n" horiz-adv-x="2916" 
d="M791 0v1733h290l1471 -1151v1151h381v-1733h-291l-1466 1167v-1167h-385z" />
    <glyph glyph-name="o" unicode="o" horiz-adv-x="2929" 
d="M1126 332h1397v1085h-1397v-1085zM705 1323c0 160 30 268 90 324c61.333 57.333 181.333 86 360 86h1339c178 0 298.333 -28.667 361 -86c60 -57.333 90 -165.333 90 -324v-913c0 -157.333 -31.333 -265.333 -94 -324c-62.667 -57.333 -181.667 -86 -357 -86h-1339
c-178.667 0 -298.667 28.667 -360 86c-60 55.333 -90 163.333 -90 324v913z" />
    <glyph glyph-name="p" unicode="p" horiz-adv-x="2572" 
d="M791 0v1733h1556c147.333 0 251 -26 311 -78c63.333 -54 95 -140 95 -258v-385c0 -115.333 -31.667 -200 -95 -254c-67.333 -54.667 -171 -82 -311 -82h-1143v-676h-413zM2167 1434h-963v-459h963c71.333 0 121.666 11 151 33c27.333 18.667 41 54 41 106v180
c0 51.333 -13.667 87 -41 107c-30.667 22 -81 33 -151 33z" />
    <glyph glyph-name="q" unicode="q" horiz-adv-x="2929" 
d="M705 1323c0 160 30 268.001 90 324.001c61.333 57.333 181.333 86 360 86h1339c178 0 298.333 -28.667 361 -86c60 -57.333 90 -165.333 90 -324v-909c0 -157.333 -31.333 -265.333 -94 -324c-60.667 -56 -179.667 -86 -357 -90h-204l229 -442h-418l-196 442h-750
c-176 0 -294.667 28.667 -356 86c-62.667 57.333 -94 166.666 -94 327.999v909zM1126 332.001h635l-180 373l303 114l238 -487h401v1085h-1397v-1085z" />
    <glyph glyph-name="r" unicode="r" horiz-adv-x="2662" 
d="M2167 1434h-963v-480h963c70 0 120.333 11 151 33c27.333 20 41 55.667 41 107v200c0 51.333 -13.667 87 -41 107c-30.667 22 -81 33 -151 33zM791 0v1733h1556c143.333 0 247 -26 311 -78c63.333 -54 95 -140 95 -258v-410c0 -115.333 -31.667 -200 -95 -254
c-64 -52 -167.667 -78 -311 -78h-238l824 -655h-606l-725 655h-398v-655h-413z" />
    <glyph glyph-name="s" unicode="s" horiz-adv-x="2716" 
d="M2343 1421l-1192 -0.000976562v-364h1126c178 0 298.333 -28.667 361 -86c60 -57.333 90 -165.333 90 -324v-237c0 -157.333 -31.333 -265.333 -94 -324c-62.667 -57.333 -181.667 -86 -357 -86h-1122c-181.333 0 -302.666 28.667 -363.999 86
c-63.333 58 -95 166 -95 324v49l377 69v-204h1274v397h-1122c-178 0 -298.333 28.667 -361 86c-62.667 58.667 -94 166.334 -94 323.001v193c0 152 31.333 260 94 324c62.667 57.333 183 86 361 86h1028c172.667 0 292.667 -27.333 360 -82c62.667 -58.667 94 -157 94 -295
v-41l-364 -78v184z" />
    <glyph glyph-name="t" unicode="t" horiz-adv-x="2417" 
d="M1585 1421v-1421h-422v1421h-835v312h2097v-312h-840z" />
    <glyph glyph-name="u" unicode="u" horiz-adv-x="2822" 
d="M1208 1733v-1409h1205v1409h426v-1323c0 -158 -31.667 -266 -95 -324c-61.333 -57.333 -181.333 -86 -360 -86h-1147c-176 0 -294.667 28.667 -356 86c-60 55.333 -90 163.333 -90 324v1323h417z" />
    <glyph glyph-name="v" unicode="v" horiz-adv-x="2589" 
d="M1352 0l-1049 1733h479l734 -1258l692 1258h438l-1004 -1733h-290z" />
    <glyph glyph-name="w" unicode="w" horiz-adv-x="3232" 
d="M1008 0l-705 1733h442l455 -1209l488 1209h290l484 -1209l446 1209h381l-696 -1733h-287l-500 1225l-508 -1225h-290z" />
    <glyph glyph-name="x" unicode="x" horiz-adv-x="2613" 
d="M410 0l856 889l-873 844h565l582 -562l549 562h487l-790 -795l975 -938h-578l-663 647l-611 -647h-499z" />
    <glyph glyph-name="y" unicode="y" horiz-adv-x="2429" 
d="M1139 0v778l-946 955h569l618 -648l627 648h496l-942 -947v-786h-422z" />
    <glyph glyph-name="z" unicode="z" horiz-adv-x="2523" 
d="M586 0v188l1269 1233h-1142v312h1827v-172l-1295 -1242h1295v-319h-1954z" />
    <glyph glyph-name="braceleft" unicode="{" 
d="M2085 2654l-82.001 0.000976562c-164 0 -272 -30 -324 -90c-54.667 -62.667 -82 -185.667 -82 -369v-483c0 -213.333 -28.667 -365 -86 -455c-61.333 -94.667 -166.333 -160 -315 -196c147.333 -36 252.333 -100.333 315 -193c57.333 -88.667 86 -241.334 86 -458.001
v-484c0 -188 28.667 -310.667 86 -368c52 -60 160 -90 324 -90h78v-295h-86c-144.667 0 -258 8 -340 24c-79.333 12 -147.666 36.667 -204.999 74c-76.667 46.667 -128.667 110.667 -156 192c-30 92 -45 232.667 -45 422v492c0 200 -35.333 339.333 -106 418
c-74 82 -198.333 123 -373 123h-41c-13.333 -3.33301 -28.333 -5 -45 -5v299c16.667 0 31.667 -1.33301 45 -4h45c172 0 295 41 369 123c70.667 78.667 106 216.667 106 414v491c0 189.333 15 330 45 422c29.333 83.333 81.333 147.666 156 193
c58.667 34.667 131 60.667 217 78c86 16 199.333 24 340 24h74v-299z" />
    <glyph glyph-name="bar" unicode="|" 
d="M2093 3129v-4096h-299v4096h299z" />
    <glyph glyph-name="braceright" unicode="}" 
d="M1487 2236l-0.000976562 -491c0 -196 35.333 -334 106 -414c70 -82 193 -123 369 -123h45c14 2.66699 29 4 45 4v-299c-16 0 -31 1.66699 -45 5h-41c-177.333 0 -301.666 -39.667 -372.999 -119c-70.667 -84 -106 -224.667 -106 -422v-492c0 -189.333 -15 -330 -45 -422
c-27.333 -81.333 -79.333 -145.333 -156 -192c-57.333 -37.333 -125.666 -62 -204.999 -74c-82 -16 -195.333 -24 -340 -24h-86v295h78c164.667 0 272.667 30 324 90c57.333 61.333 86 185.333 86 372v480c0 215.333 30 366.666 90 453.999
c57.333 94.667 161 160.334 311 197.001c-150.667 36.667 -254.334 102 -311.001 196c-60 88 -90 239.667 -90 455v483c0 184.667 -28.667 307.667 -86 369c-51.333 60 -159.333 90 -324 90h-78v299h74c143.333 0 258 -8 344 -24c88.667 -17.333 159.667 -43.333 213 -78
c74.667 -45.333 126.667 -109.666 156 -193c30 -92 45 -232.667 45 -422z" />
    <glyph glyph-name="asciitilde" unicode="~" horiz-adv-x="3412" 
d="M3432 1229c-150 -101.333 -282.333 -172.331 -397 -212.998c-132 -46.667 -259 -70 -381 -70c-128 0 -298.667 38.333 -512 115c-16 6.66699 -37.667 14.667 -65 24c-6 3.33301 -17 7.66602 -33 12.999c-238 79.333 -419.667 119 -545 119
c-110.667 0 -228 -24.667 -352 -74c-113.333 -46.667 -252.666 -127.334 -417.999 -242.001v311c143.333 95.333 278.666 168 405.999 218c130 46 252.667 69 368 69c83.333 0 168 -8 254 -24c92 -22.667 201.333 -55.667 328 -99c26 -10 57.333 -21 94 -33
c210 -76 369.667 -114 479 -114c119.333 0 239.666 24.667 361 74c125.333 52 263 131 413 237v-311z" />
    <glyph glyph-name="FDW128" 
d="M1176 -868l-0.000976562 236.999c116 -29.333 214 -49.666 294 -60.999c84 -16.667 156.667 -25 218 -25c73.333 0 127.666 12.333 162.999 37c36 28 54 66.333 54 115c0 52 -23.333 93 -70 123c-44.667 24 -117 36 -217 36c-14 0 -27.667 -1.33301 -41 -4h-41v410h180
v-188h33c158.667 0 277.334 -31.667 356.001 -95c76.667 -60 115 -156.667 115 -290c0 -124 -43.667 -217 -131 -279c-83.333 -68 -206.333 -102 -369 -102c-61.333 0 -144.666 6.66699 -249.999 20c-102.667 17.333 -200.667 39.333 -294 66z" />
    <glyph glyph-name="FDW129" 
d="M2068 2523c-27.333 -153.333 -74.998 -268 -142.998 -344c-61.333 -70.667 -146 -106 -254 -106c-30 0 -51.667 1.33301 -65 4c-33.333 5.33301 -58 10.666 -74 16l-168 49c-6.66699 2 -13 3.66699 -19 5s-14.333 3.33301 -25 6s-19.334 4.66699 -26.001 6
c-13.333 2.66699 -32.333 4 -57 4c-42 0 -79 -11 -111 -33c-28 -21.333 -48.333 -55.333 -61 -102h-201c29.333 148 74.333 258.333 135 331c63.333 71.333 146.666 107 249.999 107c32.667 0 58.667 -1.33301 78 -4c31.333 -4 61.333 -12.333 90 -25l176 -49
c6 -1.33301 14.333 -2.66602 25 -4c10.667 -1.33301 18.667 -2.66602 24 -4c11.333 -2.66699 29.333 -4 54 -4c46 0 82.667 12.333 110 37c28 26.667 48.667 63.334 62 110h200z" />
    <glyph glyph-name="FDW141" horiz-adv-x="2118" 
d="M1729 1241c11.333 68 26.332 181.333 44.999 340c10.667 95.333 16 199 16 311c0 172.667 -24.667 302.334 -74 389c-50 88 -122.333 132 -217 132c-76.667 0 -161.334 -38.333 -254.001 -115c-95.333 -79.333 -167.666 -119 -216.999 -119c-45.333 0 -85 15 -119 45
c-32.667 29.333 -49 65 -49 107c0 80.667 48 154.334 144 221c98.667 65.333 214.667 98 348 98c240 0 431 -103.667 573 -311c142 -203.333 213 -482 213 -836c0 -447.333 -95.667 -817.333 -287 -1110c-192 -294.667 -430.667 -442 -716 -442
c-199.333 0 -367.333 72.333 -504 217s-205 325 -205 541c0 264 73.667 482.333 221 655c149.333 169.333 331 254 545 254c136.667 0 247.334 -30 332.001 -90c88 -63.333 156.333 -159 205 -287zM1630 987c0 155.333 -28.666 275.669 -85.999 361.002
c-56.667 81.333 -138.667 122 -246 122c-143.333 0 -262 -86 -356 -258c-95.333 -174.667 -143 -398.334 -143 -671.001c0 -156.667 28.5 -275.834 85.5 -357.501s138.833 -122.5 245.5 -122.5c147.333 0 267.666 87.667 360.999 263c92.667 169.333 139 390.333 139 663z
" />
    <glyph glyph-name="FDW142" horiz-adv-x="2761" 
d="M160 2945h2515v-385h-1917l1343 -1434l-1384 -1527h2011v-385h-2626v299l1450 1601l-1388 1479z" />
    <glyph glyph-name="FDW143" horiz-adv-x="3101" 
d="M639 2945h2474v-3731h-479v3321h-1516v-3321h-479v3731z" />
    <glyph glyph-name="FDW144" horiz-adv-x="2413" 
d="M2253 1827l-365.001 0.00195312l-209 -975c-24.667 -122.667 -39.667 -203.334 -45 -242.001c-10.667 -54 -16 -99 -16 -135c0 -76.667 16.333 -131.334 49 -164.001c29.333 -32.667 81.333 -49 156 -49c32.667 0 58.667 1.33301 78 4c61.333 8 102 13.667 122 17
l-61 -283c-40 -12 -78.333 -20.333 -115 -25c-49.333 -5.33301 -84.666 -8 -105.999 -8c-161.333 0 -280.333 34.333 -357 103c-81.333 69.333 -122 170.333 -122 303c0 61.333 8 139 24 233c11.333 94 40 249.667 86 467l160 754h-651l-389 -1827h-361l389 1827h-82
c-72 0 -128 -22 -168 -66c-39.333 -39.333 -65 -106 -77 -200h-320c36 216 103 368.667 201 458c94 82 251 123 471 123h1777z" />
    <glyph glyph-name="FDW157" horiz-adv-x="3412" 
d="M3432 860c-137.333 -96.667 -269.668 -167.666 -397.001 -212.999c-130 -46 -257 -69 -381 -69c-125.333 0 -315 45 -569 135s-449.333 135 -586 135c-109.333 0 -224 -24.667 -344 -74c-117.333 -44 -259.333 -124.667 -426 -242v312
c144.667 99.333 281.334 171.666 410.001 216.999c128 49.333 249.333 74 364 74c154 0 357.667 -45.333 611 -136c249.333 -92.667 430.666 -139 544 -139c118 0 237 24.667 357 74c110.667 42 249.667 121 417 237v-311zM3432 1597
c-134.667 -94.667 -267 -165.666 -397 -212.999c-130 -46 -257 -69 -381 -69c-125.333 0 -315 45 -569 135s-449.333 135 -586 135c-108 0 -222.667 -23 -344 -69c-111.333 -46.667 -253.333 -128.667 -426 -246v311c148 97.333 283.333 169.666 406 216.999
c132 46.667 254.667 70 368 70c157.333 0 361 -45 611 -135c252 -90.667 433.333 -136 544 -136c112 0 229.667 23.333 353 70c113.333 43.333 253.666 124 421 242v-312z" />
    <glyph glyph-name="FDW158" horiz-adv-x="2740" 
d="M2191 356l-835 2167l-836 -2167h1671zM1581 2945l1159 -2945h-2765l1160 2945h446z" />
    <glyph glyph-name="nonbreakingspace" unicode="&#xa0;" horiz-adv-x="3043" 
 />
    <glyph glyph-name="exclamdown" unicode="&#xa1;" horiz-adv-x="1573" 
d="M1118 1532h-69c-40.667 0 -66.667 9.66699 -78 29c-16.667 19.333 -25 56 -25 110v303c0 56 8.33301 94.333 25 115c16.667 16.667 65.667 25 147 25h361c38 0 65.333 -9.66699 82 -29c13.333 -23.333 20 -60.333 20 -111v-303c0 -57.333 -8.33301 -94 -25 -110
c-14.667 -19.333 -63.667 -29 -147 -29h-291zM1425 1253l156 -1253h-635l156 1253h323z" />
    <glyph glyph-name="cent" unicode="&#xa2;" horiz-adv-x="3166" 
d="M2220 332l262 762h-405v-762h143zM1962 -414l143 414h-106c-116 0 -196.667 24.667 -242 74c-46 50 -69 137.333 -69 262v754c0 128.667 27 216 81 262c52 43.333 156 65 312 65h512l114 336h222l-115 -336c162.667 0 269 -19 319 -57
c49.333 -40.667 74 -122.667 74 -246v-184l-360 -58v222h-144l-266 -762h410v278l360 -86v-266c0 -97.333 -24.667 -164.333 -74 -201c-46 -38 -132 -57 -258 -57h-548l-144 -414h-221z" />
    <glyph glyph-name="sterling" unicode="&#xa3;" horiz-adv-x="3166" 
d="M877 -49l-0.00195312 422.002c164.667 12 282 53 352 123c70.667 70.667 106 177 106 319c0 16.667 -1.33301 34.334 -4 53.001c-2.66699 19.333 -4 40 -4 62h-455v323h431c-3.33301 32.667 -7.66602 78 -12.999 136c-2.66699 30 -4 75 -4 135
c0 205.333 52 355.333 156 450c101.333 93.333 268 140 500 140h716c186.667 0 326 -34.333 418 -103c95.333 -70 143 -172.333 143 -307v-193l-413 -69v123c0 76 -20.667 130.667 -62 164c-44 30 -120.333 45 -229 45h-467c-144.667 0 -239 -22 -283 -66
c-46 -46 -69 -132 -69 -258c0 -46.667 1.33301 -79.334 4 -98.001c4 -36.667 8 -69.667 12 -99h598v-323h-581c-6 -108.667 -13 -185.334 -21 -230.001c-10.667 -60.667 -27 -124.667 -49 -192c182.667 -48 349.334 -83.667 500.001 -107c158.667 -24 308.667 -36 450 -36
c155.333 0 256.333 17.667 303 53c46.667 38.667 70 109.667 70 213v82l401 -74v-152c0 -173.333 -57.333 -303 -172 -389c-116 -87.333 -285.333 -131 -508 -131c-164.667 0 -347.667 17.667 -549 53c-197.333 35.333 -421 88.666 -671 159.999
c-86.667 -79.333 -177 -138 -271 -176c-86 -35.333 -185.667 -53 -299 -53h-36z" />
    <glyph glyph-name="yen" unicode="&#xa5;" horiz-adv-x="3166" 
d="M2605 2114h573l-552 -590h446v-267h-692l-295 -315h987v-266h-987v-676h-455v676h-991v266h991l-295 315h-696v267h446l-557 590h648l716 -832z" />
    <glyph glyph-name="FDW166" unicode="&#xa6;" horiz-adv-x="684" 
d="M647 2179l-1782 -2245h-266l1786 2245h262z" />
    <glyph glyph-name="section" unicode="&#xa7;" 
d="M573 -86l238.002 220.998c72 -72 149.667 -128 233 -168c84 -38 166 -57 246 -57c79.333 0 142.333 17.667 189 53c48.667 32.667 73 76.334 73 131.001c0 84 -116 172.667 -348 266c-19.333 10.667 -38.333 19 -57 25c-247.333 102.667 -414 197 -500 283
c-90 82 -135 183 -135 303c0 106.667 35.333 198 106 274c72 72 173.333 118.333 304 139c-80.667 52 -138 106.667 -172 164c-38.667 60.667 -58 127.667 -58 201c0 128 53.167 233 159.5 315s244.5 123 414.5 123c127.333 0 246 -20.333 356 -61
c111.333 -41.333 211 -101.333 299 -180l-238 -209c-68 60 -137.333 109 -208 147c-69.333 32.667 -135 49 -197 49c-72.667 0 -131.334 -16.333 -176.001 -49c-46.667 -30 -70 -71 -70 -123c0 -44.667 20.667 -85.667 62 -123c38 -33.333 136.333 -81 295 -143
c280.667 -112 465 -207.667 553 -287c87.333 -83.333 131 -183 131 -299c0 -103.333 -37 -192 -111 -266c-77.333 -77.333 -182.333 -127.666 -315 -150.999c77.333 -37.333 138.666 -90.666 183.999 -159.999c46.667 -72.667 70 -150.667 70 -234
c0 -134 -57.333 -244.333 -172 -331c-114.667 -90.667 -259.667 -136 -435 -136c-132 0 -260.333 26 -385 78c-127.333 49.333 -239.333 117.666 -336 204.999zM803.002 1077c0 -44 19 -89 57 -135c39.333 -44 100.666 -87.667 183.999 -131
c87.333 -48.667 184.333 -91 291 -127c102.667 -30 184.667 -45 246 -45c60.667 0 110 15 148 45c38 30.667 57 67.667 57 111c0 42 -23.333 88.333 -70 139c-37.333 37.333 -109.666 85 -216.999 143c-95.333 52 -189.333 91.667 -282 119c-89.333 27.333 -166 41 -230 41
c-53.333 0 -97 -15 -131 -45c-35.333 -28 -53 -66.333 -53 -115z" />
    <glyph glyph-name="dieresis" unicode="&#xa8;" 
d="M1667 2052v459h406v-459h-406zM983 2052v459h406v-459h-406z" />
    <glyph glyph-name="copyright" unicode="&#xa9;" horiz-adv-x="3412" 
d="M2351 1815c-15.333 99.333 -58.999 178.335 -130.999 237.002c-72 54.667 -164.667 82 -278 82c-138.667 0 -249.334 -60 -332.001 -180c-79.333 -121.333 -119 -288 -119 -500c0 -210.667 41 -373 123 -487c84.667 -117.333 200.667 -176 348 -176
c108.667 0 200 31.333 274 94c69.333 60.667 114.666 146.667 136 258h290c-12 -172.667 -83 -313.334 -213 -422.001c-134.667 -106.667 -301 -160 -499 -160c-245.333 0 -435.333 79.333 -570 238c-139.333 159.333 -209 381.666 -209 666.999
c0 266.667 72.667 482.667 218 648c148.667 160.667 339.667 241 573 241c189.333 0 347.666 -49 475 -147c127.333 -103.333 197 -234.333 209 -393h-295zM3232 1454c0 166 -31.334 331.335 -94.001 496.002c-62.667 153.333 -154.334 289.666 -275.001 409
c-122.667 122.667 -262 217 -418 283c-159.333 62.667 -323 94 -491 94c-169.333 0 -332 -31.333 -488 -94c-151.333 -62 -287.666 -153.667 -408.999 -275c-120 -119.333 -215.667 -259.666 -287 -421c-65.333 -160.667 -98 -324.667 -98 -492c0 -170 32.667 -331 98 -483
c66 -156 160.333 -295.333 283 -418c124 -124 261.667 -217 413 -279c152.667 -65.333 315.334 -98 488.001 -98c165.333 0 326.333 32.667 483 98c161.333 72 303.333 167.667 426 287c123.333 123.333 215 258.666 275 405.999c62.667 155.333 94 317.666 94 486.999z
M1950 2929c202 0 393.002 -36.998 573.002 -110.998c179.333 -71.333 337.666 -177.666 475 -319c138.667 -134.667 245.334 -293.334 320 -476.001c73.333 -184.667 110 -374.334 110 -569.001c0 -197.333 -36.667 -384.333 -110 -561
c-71.333 -180 -176.666 -337 -316 -471c-142.667 -138.667 -306.334 -248 -491.001 -328c-175.333 -76 -362.333 -114 -561 -114c-196.667 0 -382.334 36.667 -557.001 110c-182 80.667 -342 190 -480 328c-140 136 -247.667 295.667 -323 479
c-74 176 -111 361.667 -111 557c0 196.667 37 385 111 565c82.667 186.667 192 348 328 484c142 142 299 247 471 315c176 74 363 111 561 111z" />
    <glyph glyph-name="ordfeminine" unicode="&#xaa;" horiz-adv-x="1745" 
d="M168 844l676 1040h270l688 -1040h-311l-143 229h-758l-144 -229h-278zM709 1262h524l-266 434z" />
    <glyph glyph-name="guillemotleft" unicode="&#xab;" horiz-adv-x="2302" 
d="M2314 262h-364l-484 606l484 602h364l-467 -602zM1368 262h-364l-484 606l484 602h364l-467 -602z" />
    <glyph glyph-name="logicalnot" unicode="&#xac;" horiz-adv-x="3412" 
d="M3437 1720v-1003h-275v725h-2122v278h2397z" />
    <glyph glyph-name="FDW173" unicode="&#xad;" horiz-adv-x="2482" 
d="M2019 1774c0 169.333 -58.8301 312.666 -176.497 429.999s-260.834 176 -429.501 176s-312 -58.667 -430 -176c-117.333 -117.333 -176 -260.666 -176 -429.999c0 -170 58.667 -313.667 176 -431c121.333 -120 264.666 -180 429.999 -180s308.666 60 429.999 180
c117.333 117.333 176 261 176 431zM901.003 2437c86 62.667 166.668 106.336 242.001 131.002c81.333 27.333 170 41 266 41c98.667 0 188.667 -13.667 270 -41c75.333 -24.667 156 -68.334 242 -131l410 410l163 -160l-409 -414
c52.667 -72.667 93.667 -150.334 123 -233.001c27.333 -84 41 -174.333 41 -271c0 -100 -13.667 -190 -41 -270c-29.333 -86.667 -70.333 -164.334 -123 -233.001l409 -410l-163 -164l-410 410c-80 -59.333 -160.667 -103 -242 -131c-81.333 -27.333 -170 -41 -266 -41
c-91.333 0 -181.333 15 -270 45c-86.667 29.333 -167.334 71.666 -242.001 126.999l-409 -410l-164 164l413 410c-52.667 68.667 -93.667 146.334 -123 233.001c-30 92 -45 182 -45 270c0 94 13.667 183 41 267c26 77.333 68.333 156.333 127 237l-413 414l164 160z" />
    <glyph glyph-name="registered" unicode="&#xae;" horiz-adv-x="3412" 
d="M1933 2114h-258v-553h267c150.667 0 258.334 20.333 323 61c65.333 44.667 98 113 98 205c0 103.333 -34.167 177 -102.5 221s-177.5 66 -327.5 66zM1991 2318c232 0 406.667 -38.001 524 -114.001c114.667 -78 172 -192.667 172 -344
c0 -119.333 -32.667 -217.666 -98 -294.999c-71.333 -79.333 -165.666 -131.333 -283 -156l373 -762h-352l-340 713h-312v-713h-315v1671h631zM3232 1442c0 178.667 -30 346.667 -90 504c-59.333 148.667 -151 285 -275 409c-119.333 123.333 -257 219 -413 287
c-164.667 62.667 -331.334 94 -500 94c-168 0 -332 -31.333 -492 -94c-153.333 -62.667 -287 -152.667 -401 -270c-125.333 -125.333 -221 -267.333 -287 -426c-68 -158 -102 -322 -102 -492c0 -167.333 32.667 -327 98 -479c59.333 -152 152.333 -291.333 279 -418
c116 -120.667 253.667 -215 413 -283c156.667 -65.333 316.667 -98 480 -98c170 0 335 31.333 495 94c156.667 68 297.334 162.333 422 283c120.667 120.667 213.667 255.667 279 405c62.667 156 94 317.333 94 484zM1950 2929c202 0 393 -37 573 -111
c186 -80.667 345.667 -190 479 -328c136 -138.667 241.333 -297 316 -475c73.333 -180.667 110 -367.667 110 -561c0 -200 -36.667 -388.333 -110 -565c-76.667 -182 -183.334 -339 -320 -471c-138.667 -139.333 -301 -247.333 -487 -324
c-179.333 -76 -366.333 -114 -561 -114c-202.667 0 -389.667 38 -561 114c-172.667 72 -332.667 181.333 -480 328c-138 142 -244.333 301.667 -319 479c-74 176 -111 360.333 -111 553c0 196 38.333 384.333 115 565c78 184.667 188.5 348.5 331.5 491.5
s297.5 246.833 463.5 311.5c179.333 71.333 366.333 107 561 107z" />
    <glyph glyph-name="FDW175" unicode="&#xaf;" horiz-adv-x="1356" 
d="M1368 262h-364l-484 606l484 602h364l-467 -602z" />
    <glyph glyph-name="degree" unicode="&#xb0;" horiz-adv-x="1348" 
d="M1163 2339c0 104 -36.667 195.333 -110 274c-74 74 -165.667 111 -275 111c-108.667 0 -200 -37 -274 -111c-76.667 -76.667 -115 -168 -115 -274c0 -109.333 38.333 -202.333 115 -279c72 -76 163.333 -114 274 -114c111.333 0 203 38 275 114
c73.333 78.667 110 171.667 110 279zM778 2912c158.667 0 294 -56 406 -168c112 -116 168 -252.333 168 -409c0 -157.333 -56 -292.666 -168 -405.999c-113.333 -112 -250 -168 -410 -168c-160.667 0 -297 56 -409 168c-109.333 109.333 -164 244.666 -164 405.999
c0 157.333 56 293.666 168 409c110.667 112 247 168 409 168z" />
    <glyph glyph-name="plusminus" unicode="&#xb1;" horiz-adv-x="3412" 
d="M3437 340v-283h-2397v283h2397zM2380 2384v-680h1057v-279h-1057v-680h-283v680h-1057v279h1057v680h283z" />
    <glyph glyph-name="FDW178" unicode="&#xb2;" horiz-adv-x="1356" 
d="M520 1470h365l483 -602l-483 -606h-365l467 606z" />
    <glyph glyph-name="acute" unicode="&#xb4;" 
d="M1495 1958l410 692h442l-590 -692h-262z" />
    <glyph glyph-name="mu" unicode="&#xb5;" horiz-adv-x="2302" 
d="M532 2142l-257.999 -1200c-11.333 -63.333 -18 -105.666 -20 -126.999c-5.33301 -60 -8 -106.333 -8 -139c0 -130 35.333 -232.333 106 -307c71.333 -71.333 169.666 -107 294.999 -107c176 0 315.333 61.333 418 184c101.333 122.667 183.333 330.334 246 623.001
l229 1073h356l-311 -1462c0 0.666992 -2.66699 -13 -8 -41c-24.667 -117.333 -37 -192.333 -37 -225c0 -46.667 11 -81 33 -103c21.333 -21.333 58 -32 110 -32h41c8.66699 0 17 1.33301 25 4l-61 -287c-44 -5.33301 -78.333 -9.33301 -103 -12
c-49.333 -6 -87.666 -9 -114.999 -9c-80.667 0 -144.667 19.333 -192 58c-46 38 -81.667 104.667 -107 200c-60.667 -85.333 -134.334 -150.666 -221.001 -195.999c-92 -44 -198.333 -66 -319 -66c-105.333 0 -201 19.333 -287 58c-82.667 37.333 -157.667 96 -225 176
l-221 -1061h-361l635 2998h360z" />
    <glyph glyph-name="paragraph" unicode="&#xb6;" 
d="M2056 2785l-241.001 -0.000976562v-2785h-222v2785h-352v-2785h-225v1565c-229.333 12 -409.666 80 -540.999 204c-136.667 128.667 -205 292.667 -205 492.001c0 207.333 72.333 375.333 217 504c145.333 128 335.333 192 570 192h999v-172z" />
    <glyph glyph-name="FDW185" unicode="&#xb9;" 
d="M1548 852l-168 -446l676 155v-434l-676 139l168 -676h-442l164 676l-676 -139v434l676 -155l-164 446l164 446l-676 -151v434l676 -143l-164 676h442l-168 -676l676 143v-434l-676 151z" />
    <glyph glyph-name="ordmasculine" unicode="&#xba;" horiz-adv-x="1933" 
d="M741 1044h922v648h-922v-648zM463 1638c0 96 20.332 160.332 60.999 192.999c39.333 35.333 118.666 53 237.999 53h885c118.667 0 196.334 -16.333 233.001 -49c41.333 -37.333 62 -103 62 -197v-548c0 -95.333 -20.667 -159.666 -62 -192.999
c-35.333 -35.333 -113 -53 -233 -53h-885c-119.333 0 -198.666 17.667 -237.999 53c-40.667 32.667 -61 97 -61 193v548z" />
    <glyph glyph-name="guillemotright" unicode="&#xbb;" horiz-adv-x="2302" 
d="M1470 1470h361l483 -602l-483 -606h-361l463 606zM520 1470h365l483 -602l-483 -606h-365l467 606z" />
    <glyph glyph-name="FDW188" unicode="&#xbc;" horiz-adv-x="1356" 
d="M705 1057c0 92 31.333 171.001 94 237.001c62 63.333 141 95 237 95c94 0 174.667 -31.667 242 -95c62.667 -66.667 94 -145.667 94 -237c0 -89.333 -32.667 -167.333 -98 -234c-68.667 -68 -148 -102 -238 -102s-167.667 32.667 -233 98
c-65.333 69.333 -98 148.666 -98 237.999z" />
    <glyph glyph-name="FDW189" unicode="&#xbd;" horiz-adv-x="1356" 
d="M1184 635h69c35.333 0 61.333 -11 78 -33c14 -23.333 21 -63 21 -119v-422l-406 -606h-241l348 623h-234c-34 0 -60 11 -78 33c-13.333 22 -20 61.333 -20 118v254c0 66 8 107 24 123c12 19.333 60 29 144 29h295z" />
    <glyph glyph-name="FDW190" unicode="&#xbe;" horiz-adv-x="2372" 
d="M2195 635h74c35.333 0 61.333 -11 78 -33c13.333 -22 20 -61.667 20 -119v-422l-405 -606h-246l348 623h-229c-39.333 0 -65.333 11 -78 33c-16 20 -24 59.333 -24 118v254c0 62 7.83301 102.833 23.5 122.5s65.167 29.5 148.5 29.5h290zM1184 635h69
c35.333 0 61.333 -11 78 -33c14 -23.333 21 -63 21 -119v-422l-406 -606h-241l348 623h-234c-34 0 -60 11 -78 33c-13.333 22 -20 61.333 -20 118v254c0 66 8 107 24 123c12 19.333 60 29 144 29h295z" />
    <glyph glyph-name="questiondown" unicode="&#xbf;" horiz-adv-x="2712" 
d="M2023 1257v-294l-708 -426v-185h946v262l410 -65v-115c0 -144.667 -37 -254 -111 -328c-76 -70.667 -186.667 -106 -332 -106h-835c-167.333 0 -294.333 32.667 -381 98c-82 66 -123 165.667 -123 299v332l717 418v110h417zM1675 1532h-73
c-37.333 0 -63.333 9.66699 -78 29c-14 21.333 -21 58 -21 110v303c0 56 8.33301 94.333 25 115c16.667 16.667 65.667 25 147 25h361c38 0 65.333 -9.66699 82 -29c13.333 -23.333 20 -60.333 20 -111v-303c0 -57.333 -8 -94 -24 -110
c-15.333 -19.333 -64.666 -29 -148 -29h-291z" />
    <glyph glyph-name="FDW192" unicode="&#xc0;" horiz-adv-x="3158" 
d="M1077 844h926l-459 860zM131 0l1192 2114h475l1213 -2114h-553l-254 463h-1340l-246 -463h-487z" />
    <glyph glyph-name="FDW192" unicode="&#x410;" horiz-adv-x="3158" 
d="M1077 844h926l-459 860zM131 0l1192 2114h475l1213 -2114h-553l-254 463h-1340l-246 -463h-487z" />
    <glyph glyph-name="FDW193" unicode="&#xc1;" horiz-adv-x="2839" 
d="M1876 365h-1106v561h1106c83.333 0 142 -12.333 176 -37c30 -26 45 -69.667 45 -131v-226c0 -61.333 -15 -105 -45 -131c-32.667 -24 -91.334 -36 -176.001 -36zM287.001 2114v-2114h1806c166 -0 289 31.333 369 94c73.333 66 110 171.333 110 316v471
c0 141.333 -36.667 245 -110 311c-78.667 65.333 -201.667 98 -369 98h-1323v459h1593l140 365h-1733h-483z" />
    <glyph glyph-name="FDW193" unicode="&#x411;" horiz-adv-x="2839" 
d="M1876 365h-1106v561h1106c83.333 0 142 -12.333 176 -37c30 -26 45 -69.667 45 -131v-226c0 -61.333 -15 -105 -45 -131c-32.667 -24 -91.334 -36 -176.001 -36zM287.001 2114v-2114h1806c166 -0 289 31.333 369 94c73.333 66 110 171.333 110 316v471
c0 141.333 -36.667 245 -110 311c-78.667 65.333 -201.667 98 -369 98h-1323v459h1593l140 365h-1733h-483z" />
    <glyph glyph-name="FDW194" unicode="&#xc2;" horiz-adv-x="2785" 
d="M1806 1769h-1122v-503h1122c83.333 0 142 10.667 176 32c33.333 25.333 50 65 50 119v201c0 54 -16.667 93.667 -50 119c-34 21.333 -92.667 32 -176 32zM1806 918h-1122v-537h1122c94.667 0 157.667 13.667 189 41c32.667 28.667 49 77.667 49 147v160
c0 70 -16.333 119.333 -49 148c-32 27.333 -95 41 -189 41zM201 0v2114h1810c165.333 0 287 -33 365 -99c73.333 -65.333 110 -169 110 -311v-258c0 -98.667 -31.333 -179.334 -94 -242.001c-64.667 -64.667 -154.667 -102.667 -270 -114c122 -16.667 216 -60.667 282 -132
c66 -68.667 99 -160 99 -274v-270c0 -136.667 -52 -240.667 -156 -312c-100.667 -68 -256.334 -102 -467 -102h-1679z" />
    <glyph glyph-name="FDW194" unicode="&#x412;" horiz-adv-x="2785" 
d="M1806 1769h-1122v-503h1122c83.333 0 142 10.667 176 32c33.333 25.333 50 65 50 119v201c0 54 -16.667 93.667 -50 119c-34 21.333 -92.667 32 -176 32zM1806 918h-1122v-537h1122c94.667 0 157.667 13.667 189 41c32.667 28.667 49 77.667 49 147v160
c0 70 -16.333 119.333 -49 148c-32 27.333 -95 41 -189 41zM201 0v2114h1810c165.333 0 287 -33 365 -99c73.333 -65.333 110 -169 110 -311v-258c0 -98.667 -31.333 -179.334 -94 -242.001c-64.667 -64.667 -154.667 -102.667 -270 -114c122 -16.667 216 -60.667 282 -132
c66 -68.667 99 -160 99 -274v-270c0 -136.667 -52 -240.667 -156 -312c-100.667 -68 -256.334 -102 -467 -102h-1679z" />
    <glyph glyph-name="FDW195" unicode="&#xc3;" horiz-adv-x="2339" 
d="M258 0v2114h1929l-229 -369h-1208v-1745h-492z" />
    <glyph glyph-name="FDW195" unicode="&#x413;" horiz-adv-x="2339" 
d="M258 0v2114h1929l-229 -369h-1208v-1745h-492z" />
    <glyph glyph-name="FDW196" unicode="&#xc4;" horiz-adv-x="3858" 
d="M664 1614c0 191.333 35.334 322.333 106.001 393c75.333 71.333 214.666 107 417.999 107h1556h525v-1717h426v-733h-426v336h-2605v-336h-451v733h451v1217zM1155 397h1622v1340h-1622v-1340z" />
    <glyph glyph-name="FDW196" unicode="&#x414;" horiz-adv-x="3858" 
d="M664 1614c0 191.333 35.334 322.333 106.001 393c75.333 71.333 214.666 107 417.999 107h1556h525v-1717h426v-733h-426v336h-2605v-336h-451v733h451v1217zM1155 397h1622v1340h-1622v-1340z" />
    <glyph glyph-name="Aring" unicode="&#xc5;" horiz-adv-x="2654" 
d="M229 0v2114h2163v-361h-1671v-471h975v-360h-975v-525h1692v-397h-2184z" />
    <glyph glyph-name="Aring" unicode="&#x415;" horiz-adv-x="2654" 
d="M229 0v2114h2163v-361h-1671v-471h975v-360h-975v-525h1692v-397h-2184z" />
    <glyph glyph-name="AE" unicode="&#xc6;" horiz-adv-x="4891" 
d="M2249 0v930l-1254 -930h-802l1585 1118l-1413 996h712l1172 -881v881h495v-881l1172 881h712l-1400 -996l1573 -1118h-791l-1266 930v-930h-495z" />
    <glyph glyph-name="AE" unicode="&#x416;" horiz-adv-x="4891" 
d="M2249 0v930l-1254 -930h-802l1585 1118l-1413 996h712l1172 -881v881h495v-881l1172 881h712l-1400 -996l1573 -1118h-791l-1266 930v-930h-495z" />
    <glyph glyph-name="FDW199" unicode="&#xc7;" horiz-adv-x="2929" 
d="M807 1737l1327 -0.000976562v-451h-725v-414h725v-475h-1327v455l-492 -102v-250c0 -191.333 35.667 -322.666 107 -393.999c76 -70.667 215.333 -106 418 -106h1347c56 0 118.167 11.667 186.5 35s127.5 64.833 177.5 124.5s75 138.834 75 237.501v389
c0 90 -19.833 153.833 -59.5 191.5s-99.167 77.834 -178.5 120.501c66 27.333 122.167 64.666 168.5 111.999s69.5 102.666 69.5 165.999v238c0 190.667 -35.667 321.667 -107 393c-75.333 71.333 -214.666 107 -417.999 107h-1261
c-203.333 0 -342.666 -35.667 -417.999 -107c-71.333 -71.333 -107 -202.333 -107 -393v-201l492 -78v402z" />
    <glyph glyph-name="FDW199" unicode="&#x417;" horiz-adv-x="2929" 
d="M807 1737l1327 -0.000976562v-451h-725v-414h725v-475h-1327v455l-492 -102v-250c0 -191.333 35.667 -322.666 107 -393.999c76 -70.667 215.333 -106 418 -106h1347c56 0 118.167 11.667 186.5 35s127.5 64.833 177.5 124.5s75 138.834 75 237.501v389
c0 90 -19.833 153.833 -59.5 191.5s-99.167 77.834 -178.5 120.501c66 27.333 122.167 64.666 168.5 111.999s69.5 102.666 69.5 165.999v238c0 190.667 -35.667 321.667 -107 393c-75.333 71.333 -214.666 107 -417.999 107h-1261
c-203.333 0 -342.666 -35.667 -417.999 -107c-71.333 -71.333 -107 -202.333 -107 -393v-201l492 -78v402z" />
    <glyph glyph-name="FDW200" unicode="&#xc8;" horiz-adv-x="3178" 
d="M2847 0v2114h-336l-1487 -1246c-62 -48 -107 -86 -135 -114c-27.333 -27.333 -63 -65.666 -107 -114.999c4 50.667 7.16699 96 9.5 136s4.83301 78 7.5 114c2.66699 32.667 4 71 4 115v1110h-443v-2114h336l1553 1307c39.333 34 72 64 98 90
c29.333 28 55.333 55.333 78 82c-1.33301 -24 -4 -56 -8 -96l-9 -89c-2.66699 -40.667 -4 -91 -4 -151v-1143h443z" />
    <glyph glyph-name="FDW200" unicode="&#x418;" horiz-adv-x="3178" 
d="M2847 0v2114h-336l-1487 -1246c-62 -48 -107 -86 -135 -114c-27.333 -27.333 -63 -65.666 -107 -114.999c4 50.667 7.16699 96 9.5 136s4.83301 78 7.5 114c2.66699 32.667 4 71 4 115v1110h-443v-2114h336l1553 1307c39.333 34 72 64 98 90
c29.333 28 55.333 55.333 78 82c-1.33301 -24 -4 -56 -8 -96l-9 -89c-2.66699 -40.667 -4 -91 -4 -151v-1143h443z" />
    <glyph glyph-name="FDW201" unicode="&#xc9;" horiz-adv-x="3207" 
d="M2818 0v2114h-336l-1487 -1246c-62 -48 -107 -86 -135 -114c-32 -32 -67.333 -70.333 -106 -115l8.5 139c3 50 5.5 87 7.5 111c2.66699 32.667 4 71 4 115v1110h-442v-2114h336l1552 1307c44.667 38.667 77.334 68.667 98 90c33.333 32.667 59.333 60 78 82
c-1.33301 -24 -4 -56 -8 -96s-6.66699 -69.667 -8 -89c-2.66699 -40.667 -4 -91 -4 -151v-1143h442zM1126 2114v360h955v-360h-955z" />
    <glyph glyph-name="FDW201" unicode="&#x419;" horiz-adv-x="3207" 
d="M2818 0v2114h-336l-1487 -1246c-62 -48 -107 -86 -135 -114c-32 -32 -67.333 -70.333 -106 -115l8.5 139c3 50 5.5 87 7.5 111c2.66699 32.667 4 71 4 115v1110h-442v-2114h336l1552 1307c44.667 38.667 77.334 68.667 98 90c33.333 32.667 59.333 60 78 82
c-1.33301 -24 -4 -56 -8 -96s-6.66699 -69.667 -8 -89c-2.66699 -40.667 -4 -91 -4 -151v-1143h442zM1126 2114v360h955v-360h-955z" />
    <glyph glyph-name="FDW202" unicode="&#xca;" horiz-adv-x="3105" 
d="M307 0v2114h496v-881l1171 881h713l-1401 -996l1573 -1118h-791l-1265 930v-930h-496z" />
    <glyph glyph-name="FDW202" unicode="&#x41a;" horiz-adv-x="3105" 
d="M307 0v2114h496v-881l1171 881h713l-1401 -996l1573 -1118h-791l-1265 930v-930h-496z" />
    <glyph glyph-name="FDW203" unicode="&#xcb;" horiz-adv-x="2789" 
d="M1565 2114l1220 -2114h-561l-856 1528l-815 -1528h-492l1164 2114h340z" />
    <glyph glyph-name="FDW203" unicode="&#x41b;" horiz-adv-x="2789" 
d="M1565 2114l1220 -2114h-561l-856 1528l-815 -1528h-492l1164 2114h340z" />
    <glyph glyph-name="FDW204" unicode="&#xcc;" horiz-adv-x="3412" 
d="M279 0v2114h397l995 -1278l975 1278h393v-2114h-454v1307c0 38 1.33301 69.333 4 94c3.33301 32.667 7.33301 76.334 12 131.001c-14 -26 -26.833 -51.167 -38.5 -75.5s-22.167 -44.166 -31.5 -59.499c-22 -40.667 -39.667 -69.334 -53 -86.001l-795 -1057h-98l-794 1061
c-25.333 32.667 -50 71 -74 115c-26 40 -43.667 74 -53 102c4 -44.667 8 -85.667 12 -123v-102v-1307h-397z" />
    <glyph glyph-name="FDW204" unicode="&#x41c;" horiz-adv-x="3412" 
d="M279 0v2114h397l995 -1278l975 1278h393v-2114h-454v1307c0 38 1.33301 69.333 4 94c3.33301 32.667 7.33301 76.334 12 131.001c-14 -26 -26.833 -51.167 -38.5 -75.5s-22.167 -44.166 -31.5 -59.499c-22 -40.667 -39.667 -69.334 -53 -86.001l-795 -1057h-98l-794 1061
c-25.333 32.667 -50 71 -74 115c-26 40 -43.667 74 -53 102c4 -44.667 8 -85.667 12 -123v-102v-1307h-397z" />
    <glyph glyph-name="FDW205" unicode="&#xcd;" horiz-adv-x="3109" 
d="M287 0v2114h491v-820h1536v820h496v-2114h-496v909h-1536v-909h-491z" />
    <glyph glyph-name="FDW205" unicode="&#x41d;" horiz-adv-x="3109" 
d="M287 0v2114h491v-820h1536v820h496v-2114h-496v909h-1536v-909h-491z" />
    <glyph glyph-name="FDW206" unicode="&#xce;" horiz-adv-x="3273" 
d="M283 1614c0 191.333 35.334 322.333 106.001 393c75.333 71.333 214.666 107 417.999 107h1556c204.667 0 342.667 -35.667 414 -107c74 -70 111 -201 111 -393v-1114c0 -192.667 -37 -324 -111 -394c-72 -70.667 -210 -106 -414 -106h-1556
c-202.667 -0 -342 35.333 -418 106c-70.667 70.667 -106 202 -106 394v1114zM774.001 397h1622v1340h-1622v-1340z" />
    <glyph glyph-name="FDW206" unicode="&#x41e;" horiz-adv-x="3273" 
d="M283 1614c0 191.333 35.334 322.333 106.001 393c75.333 71.333 214.666 107 417.999 107h1556c204.667 0 342.667 -35.667 414 -107c74 -70 111 -201 111 -393v-1114c0 -192.667 -37 -324 -111 -394c-72 -70.667 -210 -106 -414 -106h-1556
c-202.667 -0 -342 35.333 -418 106c-70.667 70.667 -106 202 -106 394v1114zM774.001 397h1622v1340h-1622v-1340z" />
    <glyph glyph-name="FDW207" unicode="&#xcf;" horiz-adv-x="3056" 
d="M836 0v1716h1400v-1716h492v2114h-524h-1860v-500v-1614h492z" />
    <glyph glyph-name="FDW207" unicode="&#x41f;" horiz-adv-x="3056" 
d="M836 0v1716h1400v-1716h492v2114h-524h-1860v-500v-1614h492z" />
    <glyph glyph-name="FDW208" unicode="&#xd0;" horiz-adv-x="2810" 
d="M1847 1749l-1106 -0.00195312v-561h1106c86 0 144.667 12.333 176 37c30 24.667 45 68.334 45 131.001v225c0 62.667 -15 106.334 -45 131.001c-31.333 24.667 -90 37 -176 37zM258 -0.00195312v2114h1806c166 0 289 -31.667 369 -95c74 -64.667 111 -169.667 111 -315
v-471c0 -142 -37 -245.667 -111 -311c-78 -66 -201 -99 -369 -99h-1323v-823h-483z" />
    <glyph glyph-name="FDW208" unicode="&#x420;" horiz-adv-x="2810" 
d="M1847 1749l-1106 -0.00195312v-561h1106c86 0 144.667 12.333 176 37c30 24.667 45 68.334 45 131.001v225c0 62.667 -15 106.334 -45 131.001c-31.333 24.667 -90 37 -176 37zM258 -0.00195312v2114h1806c166 0 289 -31.667 369 -95c74 -64.667 111 -169.667 111 -315
v-471c0 -142 -37 -245.667 -111 -311c-78 -66 -201 -99 -369 -99h-1323v-823h-483z" />
    <glyph glyph-name="FDW209" unicode="&#xd1;" horiz-adv-x="2871" 
d="M2134 1737h-1327v-1340h1327v455l492 -102v-250c0 -191.333 -35.667 -322.666 -107 -393.999c-76 -70.667 -215.333 -106 -418 -106h-1261c-202.667 0 -342 35.333 -418 106c-71.333 71.333 -107 202.666 -107 393.999v1114c0 190.667 35.667 321.667 107 393
c75.333 71.333 214.666 107 417.999 107h1261c203.333 0 342.666 -35.667 418 -107c71.333 -71.333 107 -202.333 107 -393v-201l-492 -78v402z" />
    <glyph glyph-name="FDW209" unicode="&#x421;" horiz-adv-x="2871" 
d="M2134 1737h-1327v-1340h1327v455l492 -102v-250c0 -191.333 -35.667 -322.666 -107 -393.999c-76 -70.667 -215.333 -106 -418 -106h-1261c-202.667 0 -342 35.333 -418 106c-71.333 71.333 -107 202.666 -107 393.999v1114c0 190.667 35.667 321.667 107 393
c75.333 71.333 214.666 107 417.999 107h1261c203.333 0 342.666 -35.667 418 -107c71.333 -71.333 107 -202.333 107 -393v-201l-492 -78v402z" />
    <glyph glyph-name="FDW210" unicode="&#xd2;" horiz-adv-x="2679" 
d="M1589 1737v-1737h-491v1737h-971v377h2437v-377h-975z" />
    <glyph glyph-name="FDW210" unicode="&#x422;" horiz-adv-x="2679" 
d="M1589 1737v-1737h-491v1737h-971v377h2437v-377h-975z" />
    <glyph glyph-name="FDW211" unicode="&#xd3;" horiz-adv-x="3142" 
d="M406 0v397h1208h684v348h-1368c-204.667 0 -342.667 35.667 -414 107c-73.333 69.333 -110 200.333 -110 393v869h491v-1004h1401v1004h491v-1614c0 -192 -35.333 -323.333 -106 -394c-76 -70.667 -215.333 -106 -418 -106h-688h-647h-524z" />
    <glyph glyph-name="FDW211" unicode="&#x423;" horiz-adv-x="3142" 
d="M406 0v397h1208h684v348h-1368c-204.667 0 -342.667 35.667 -414 107c-73.333 69.333 -110 200.333 -110 393v869h491v-1004h1401v1004h491v-1614c0 -192 -35.333 -323.333 -106 -394c-76 -70.667 -215.333 -106 -418 -106h-688h-647h-524z" />
    <glyph glyph-name="FDW212" unicode="&#xd4;" horiz-adv-x="4186" 
d="M2372 1749h835c82.667 0 141.334 -13.667 176 -41c30 -26 45 -69.667 45 -131v-623c0 -61.333 -15 -105 -45 -131c-32.667 -24.667 -91.334 -37 -176 -37h-835v963zM2372 8v385.001h1056c166 0 289 31.333 369 94c74 66 111 171.333 111 316v901
c0 142 -37 245.667 -111 311c-78 66 -201 99 -369 99h-1040h-303h-1323c-166 0 -289 -31.667 -369 -95c-73.333 -64.667 -110 -169.667 -110 -315v-901c0 -142.667 36.667 -246.334 110 -311.001c78 -66 201 -99 369 -99h1069v-385h541zM979 1749l851.999 -0.000976562v-963
h-852c-80 0 -138.667 13.667 -176 41c-30 26 -45 69.667 -45 131v623c0 62.667 15 106.334 45 131.001c32.667 24.667 91.334 37 176.001 37z" />
    <glyph glyph-name="FDW212" unicode="&#x424;" horiz-adv-x="4186" 
d="M2372 1749h835c82.667 0 141.334 -13.667 176 -41c30 -26 45 -69.667 45 -131v-623c0 -61.333 -15 -105 -45 -131c-32.667 -24.667 -91.334 -37 -176 -37h-835v963zM2372 8v385.001h1056c166 0 289 31.333 369 94c74 66 111 171.333 111 316v901
c0 142 -37 245.667 -111 311c-78 66 -201 99 -369 99h-1040h-303h-1323c-166 0 -289 -31.667 -369 -95c-73.333 -64.667 -110 -169.667 -110 -315v-901c0 -142.667 36.667 -246.334 110 -311.001c78 -66 201 -99 369 -99h1069v-385h541zM979 1749l851.999 -0.000976562v-963
h-852c-80 0 -138.667 13.667 -176 41c-30 26 -45 69.667 -45 131v623c0 62.667 15 106.334 45 131.001c32.667 24.667 91.334 37 176.001 37z" />
    <glyph glyph-name="FDW213" unicode="&#xd5;" horiz-adv-x="3088" 
d="M221 0l1004 1085l-1020 1029h651l676 -717l643 717h565l-921 -971l1138 -1143h-667l-774 819l-713 -819h-582z" />
    <glyph glyph-name="FDW213" unicode="&#x425;" horiz-adv-x="3088" 
d="M221 0l1004 1085l-1020 1029h651l676 -717l643 717h565l-921 -971l1138 -1143h-667l-774 819l-713 -819h-582z" />
    <glyph glyph-name="FDW214" unicode="&#xd6;" horiz-adv-x="3465" 
d="M778 2114v-1717h1401v1717h492v-1717h454v-712h-454v315h-652h-1208c-204 -0 -342 35.333 -414 106c-73.333 70 -110 201.333 -110 394v1614h491z" />
    <glyph glyph-name="FDW214" unicode="&#x426;" horiz-adv-x="3465" 
d="M778 2114v-1717h1401v1717h492v-1717h454v-712h-454v315h-652h-1208c-204 -0 -342 35.333 -414 106c-73.333 70 -110 201.333 -110 394v1614h491z" />
    <glyph glyph-name="FDW215" unicode="&#xd7;" horiz-adv-x="2998" 
d="M750 2114l0.000976562 -1102h1400v1102h492v-2114h-492v627h-1368c-204.667 0 -342.334 35.333 -413.001 106c-74 70 -111 201 -111 393v988h492z" />
    <glyph glyph-name="FDW215" unicode="&#x427;" horiz-adv-x="2998" 
d="M750 2114l0.000976562 -1102h1400v1102h492v-2114h-492v627h-1368c-204.667 0 -342.334 35.333 -413.001 106c-74 70 -111 201 -111 393v988h492z" />
    <glyph glyph-name="Oslash" unicode="&#xd8;" horiz-adv-x="4137" 
d="M778 2114v-1717h991v1717h553v-1717h967v1717h492v-1614c0 -191.333 -35.667 -322.666 -107 -393.999c-76 -70.667 -215.333 -106 -418 -106h-2138h-307c-204 -0 -342 35.333 -414 106c-73.333 70 -110 201.333 -110 394v1614h491z" />
    <glyph glyph-name="Oslash" unicode="&#x428;" horiz-adv-x="4137" 
d="M778 2114v-1717h991v1717h553v-1717h967v1717h492v-1614c0 -191.333 -35.667 -322.666 -107 -393.999c-76 -70.667 -215.333 -106 -418 -106h-2138h-307c-204 -0 -342 35.333 -414 106c-73.333 70 -110 201.333 -110 394v1614h491z" />
    <glyph glyph-name="FDW217" unicode="&#xd9;" horiz-adv-x="4518" 
d="M778 2114v-1717h991v1717h553v-1717h967v1717h492v-1717h450v-708h-450v311h-2663h-307c-204 -0 -342 35.333 -414 106c-73.333 70 -110 201.333 -110 394v1614h491z" />
    <glyph glyph-name="FDW217" unicode="&#x429;" horiz-adv-x="4518" 
d="M778 2114v-1717h991v1717h553v-1717h967v1717h492v-1717h450v-708h-450v311h-2663h-307c-204 -0 -342 35.333 -414 106c-73.333 70 -110 201.333 -110 394v1614h491z" />
    <glyph glyph-name="FDW218" unicode="&#xda;" horiz-adv-x="3277" 
d="M2228 365h-1106v561h1106c84.667 0 143.334 -12.333 176 -37c30 -26 45 -69.667 45 -131v-226c0 -61.333 -15 -105 -45 -131c-32 -24 -90.667 -36 -176 -36zM639 1749v-1749h1806c166 -0 289 31.333 369 94c74 66 111 171.333 111 316v471c0 141.333 -37 245 -111 311
c-78.667 65.333 -201.667 98 -369 98h-1323v824h-975l168 -365h324z" />
    <glyph glyph-name="FDW218" unicode="&#x42a;" horiz-adv-x="3277" 
d="M2228 365h-1106v561h1106c84.667 0 143.334 -12.333 176 -37c30 -26 45 -69.667 45 -131v-226c0 -61.333 -15 -105 -45 -131c-32 -24 -90.667 -36 -176 -36zM639 1749v-1749h1806c166 -0 289 31.333 369 94c74 66 111 171.333 111 316v471c0 141.333 -37 245 -111 311
c-78.667 65.333 -201.667 98 -369 98h-1323v824h-975l168 -365h324z" />
    <glyph glyph-name="FDW219" unicode="&#xdb;" horiz-adv-x="3863" 
d="M1933 365h-1106v561h1106c84.667 0 143.334 -12.333 176.001 -37c30 -26 45 -69.667 45 -131v-226c0 -61.333 -15 -105 -45 -131c-32 -24 -90.667 -36 -176 -36zM343.999 2114v-2114h1806c166 -0 289 31.333 369 94c74 66 111 171.333 111 316v471
c0 141.333 -37 245 -111 311c-78.667 65.333 -201.667 98 -369 98h-1323v824h-483zM2945 -4v2118h508v-2118h-508z" />
    <glyph glyph-name="FDW219" unicode="&#x42b;" horiz-adv-x="3863" 
d="M1933 365h-1106v561h1106c84.667 0 143.334 -12.333 176.001 -37c30 -26 45 -69.667 45 -131v-226c0 -61.333 -15 -105 -45 -131c-32 -24 -90.667 -36 -176 -36zM343.999 2114v-2114h1806c166 -0 289 31.333 369 94c74 66 111 171.333 111 316v471
c0 141.333 -37 245 -111 311c-78.667 65.333 -201.667 98 -369 98h-1323v824h-483zM2945 -4v2118h508v-2118h-508z" />
    <glyph glyph-name="FDW220" unicode="&#xdc;" horiz-adv-x="2781" 
d="M1847 365h-1106v561h1106c84.667 0 143.334 -12.333 176.001 -37c30 -26 45 -69.667 45 -131v-226c0 -61.333 -15 -105 -45 -131c-32 -24 -90.667 -36 -176 -36zM257.999 2114v-2114h1806c166 -0 289 31.333 369 94c74 66 111 171.333 111 316v471
c0 141.333 -37 245 -111 311c-78.667 65.333 -201.667 98 -369 98h-1323v824h-483z" />
    <glyph glyph-name="FDW220" unicode="&#x42c;" horiz-adv-x="2781" 
d="M1847 365h-1106v561h1106c84.667 0 143.334 -12.333 176.001 -37c30 -26 45 -69.667 45 -131v-226c0 -61.333 -15 -105 -45 -131c-32 -24 -90.667 -36 -176 -36zM257.999 2114v-2114h1806c166 -0 289 31.333 369 94c74 66 111 171.333 111 316v471
c0 141.333 -37 245 -111 311c-78.667 65.333 -201.667 98 -369 98h-1323v824h-483z" />
    <glyph glyph-name="FDW221" unicode="&#xdd;" horiz-adv-x="3019" 
d="M864 1737h1327v-451h-1056v-414h1056v-475h-1327v238l-491 115v-250c0 -190.667 35.333 -322 106 -394c76 -70.667 215.333 -106 418 -106h1348c56 0 118 11.667 186 35s127 64.5 177 123.5s75 138.5 75 238.5v979v238c0 190.667 -35.667 321.667 -107 393
c-74.667 71.333 -213.667 107 -417 107h-1262c-203.333 0 -342.666 -35.667 -417.999 -107c-70.667 -72 -106 -203 -106 -393v-201l491 123v201z" />
    <glyph glyph-name="FDW221" unicode="&#x42d;" horiz-adv-x="3019" 
d="M864 1737h1327v-451h-1056v-414h1056v-475h-1327v238l-491 115v-250c0 -190.667 35.333 -322 106 -394c76 -70.667 215.333 -106 418 -106h1348c56 0 118 11.667 186 35s127 64.5 177 123.5s75 138.5 75 238.5v979v238c0 190.667 -35.667 321.667 -107 393
c-74.667 71.333 -213.667 107 -417 107h-1262c-203.333 0 -342.666 -35.667 -417.999 -107c-70.667 -72 -106 -203 -106 -393v-201l491 123v201z" />
    <glyph glyph-name="FDW222" unicode="&#xde;" horiz-adv-x="4006" 
d="M1192 1614c0 190 35.334 321 106.001 393c75.333 71.333 214.666 107 417.999 107h1557c205.333 0 343 -35.667 413 -107c74 -70 111 -201 111 -393v-1114c0 -192.667 -37 -324 -111 -394c-70.667 -70.667 -208.334 -106 -413 -106h-1557
c-202.667 -0 -342 35.333 -418 106c-70.667 72 -106 203.333 -106 394v360h-459v-860h-467v2114h467v-832h459v332zM1683 397h1622v1340h-1622v-1340z" />
    <glyph glyph-name="FDW222" unicode="&#x42e;" horiz-adv-x="4006" 
d="M1192 1614c0 190 35.334 321 106.001 393c75.333 71.333 214.666 107 417.999 107h1557c205.333 0 343 -35.667 413 -107c74 -70 111 -201 111 -393v-1114c0 -192.667 -37 -324 -111 -394c-70.667 -70.667 -208.334 -106 -413 -106h-1557
c-202.667 -0 -342 35.333 -418 106c-70.667 72 -106 203.333 -106 394v360h-459v-860h-467v2114h467v-832h459v332zM1683 397h1622v1340h-1622v-1340z" />
    <glyph glyph-name="FDW223" unicode="&#xdf;" horiz-adv-x="3023" 
d="M1147 1749l1106 -0.000976562v-590h-1106c-84.667 0 -143.334 12.333 -176.001 37c-30 26 -45 69.667 -45 131v254c0 62.667 15 106.334 45 131.001c32.667 24.667 91.334 37 176.001 37zM2736 -0.000976562v2114h-1806c-166 0 -289 -31.667 -369 -95
c-73.333 -64.667 -110 -169.667 -110 -315v-496c0 -142 36.667 -245.667 110 -311c77.333 -65.333 200.333 -98 369 -98h274l-975 -799h705l852 799h467v-799h483z" />
    <glyph glyph-name="FDW223" unicode="&#x42f;" horiz-adv-x="3023" 
d="M1147 1749l1106 -0.000976562v-590h-1106c-84.667 0 -143.334 12.333 -176.001 37c-30 26 -45 69.667 -45 131v254c0 62.667 15 106.334 45 131.001c32.667 24.667 91.334 37 176.001 37zM2736 -0.000976562v2114h-1806c-166 0 -289 -31.667 -369 -95
c-73.333 -64.667 -110 -169.667 -110 -315v-496c0 -142 36.667 -245.667 110 -311c77.333 -65.333 200.333 -98 369 -98h274l-975 -799h705l852 799h467v-799h483z" />
    <glyph glyph-name="FDW224" unicode="&#xe0;" horiz-adv-x="3158" 
d="M1049 844h925l-458 860zM102 0l1192 2114h475l1213 -2114h-553l-254 463h-1339l-246 -463h-488z" />
    <glyph glyph-name="FDW224" unicode="&#x430;" horiz-adv-x="3158" 
d="M1049 844h925l-458 860zM102 0l1192 2114h475l1213 -2114h-553l-254 463h-1339l-246 -463h-488z" />
    <glyph glyph-name="FDW225" unicode="&#xe1;" horiz-adv-x="2957" 
d="M1933 365h-1106v561h1106c84.667 0 143.334 -12.333 176.001 -37c30 -26 45 -69.667 45 -131v-226c0 -61.333 -15 -105 -45 -131c-32 -24 -90.667 -36 -176 -36zM343.999 2114v-2114h1806c166 -0 289 31.333 369 94c74 66 111 171.333 111 316v471
c0 141.333 -37 245 -111 311c-78.667 65.333 -201.667 98 -369 98h-1323v459h1594l139 365h-1733h-483z" />
    <glyph glyph-name="FDW225" unicode="&#x431;" horiz-adv-x="2957" 
d="M1933 365h-1106v561h1106c84.667 0 143.334 -12.333 176.001 -37c30 -26 45 -69.667 45 -131v-226c0 -61.333 -15 -105 -45 -131c-32 -24 -90.667 -36 -176 -36zM343.999 2114v-2114h1806c166 -0 289 31.333 369 94c74 66 111 171.333 111 316v471
c0 141.333 -37 245 -111 311c-78.667 65.333 -201.667 98 -369 98h-1323v459h1594l139 365h-1733h-483z" />
    <glyph glyph-name="FDW226" unicode="&#xe2;" horiz-adv-x="2871" 
d="M1892 1769h-1122v-503h1122c83.333 0 142 10.667 176 32c33.333 25.333 50 65 50 119v201c0 54 -16.667 93.667 -50 119c-34 21.333 -92.667 32 -176 32zM1892 918h-1122v-537h1122c94.667 0 157.667 13.667 189.001 41c32.667 28.667 49 77.667 49 147v160
c0 70 -16.333 119.333 -49 148c-32 27.333 -95 41 -189 41zM286.999 0l0.000976562 2114h1810c165.333 0 287 -33 365 -99c73.333 -65.333 110 -169 110 -311v-258c0 -98.667 -31.333 -179.334 -94 -242.001c-64.667 -64.667 -154.667 -102.667 -270 -114
c122 -16.667 216 -60.667 282 -132c66 -68.667 99 -160 99 -274v-270c0 -136.667 -52 -240.667 -156 -312c-100.667 -68 -256.334 -102 -467.001 -102h-1679z" />
    <glyph glyph-name="FDW226" unicode="&#x432;" horiz-adv-x="2871" 
d="M1892 1769h-1122v-503h1122c83.333 0 142 10.667 176 32c33.333 25.333 50 65 50 119v201c0 54 -16.667 93.667 -50 119c-34 21.333 -92.667 32 -176 32zM1892 918h-1122v-537h1122c94.667 0 157.667 13.667 189.001 41c32.667 28.667 49 77.667 49 147v160
c0 70 -16.333 119.333 -49 148c-32 27.333 -95 41 -189 41zM286.999 0l0.000976562 2114h1810c165.333 0 287 -33 365 -99c73.333 -65.333 110 -169 110 -311v-258c0 -98.667 -31.333 -179.334 -94 -242.001c-64.667 -64.667 -154.667 -102.667 -270 -114
c122 -16.667 216 -60.667 282 -132c66 -68.667 99 -160 99 -274v-270c0 -136.667 -52 -240.667 -156 -312c-100.667 -68 -256.334 -102 -467.001 -102h-1679z" />
    <glyph glyph-name="FDW227" unicode="&#xe3;" horiz-adv-x="2339" 
d="M315 0v2114h1930l-230 -369h-1208v-1745h-492z" />
    <glyph glyph-name="FDW227" unicode="&#x433;" horiz-adv-x="2339" 
d="M315 0v2114h1930l-230 -369h-1208v-1745h-492z" />
    <glyph glyph-name="FDW228" unicode="&#xe4;" horiz-adv-x="3469" 
d="M2535 397h-1581v680c0 210.667 63 374.667 189 492c121.333 112 294.666 168 519.999 168h872v-1340zM3297 0v397h-266v1717h-1364c-388 0 -687 -90.333 -897 -271c-204.667 -180 -307 -438 -307 -774v-672h-275v-397h3109z" />
    <glyph glyph-name="FDW228" unicode="&#x434;" horiz-adv-x="3469" 
d="M2535 397h-1581v680c0 210.667 63 374.667 189 492c121.333 112 294.666 168 519.999 168h872v-1340zM3297 0v397h-266v1717h-1364c-388 0 -687 -90.333 -897 -271c-204.667 -180 -307 -438 -307 -774v-672h-275v-397h3109z" />
    <glyph glyph-name="aring" unicode="&#xe5;" horiz-adv-x="2654" 
d="M229 0v2114h2163v-361h-1671v-471h975v-360h-975v-525h1692v-397h-2184z" />
    <glyph glyph-name="aring" unicode="&#x435;" horiz-adv-x="2654" 
d="M229 0v2114h2163v-361h-1671v-471h975v-360h-975v-525h1692v-397h-2184z" />
    <glyph glyph-name="ae" unicode="&#xe6;" horiz-adv-x="4891" 
d="M2187 0v930l-1253 -930h-803l1585 1118l-1413 996h713l1171 -881v881h496v-881l1171 881h713l-1401 -996l1573 -1118h-790l-1266 930v-930h-496z" />
    <glyph glyph-name="ae" unicode="&#x436;" horiz-adv-x="4891" 
d="M2187 0v930l-1253 -930h-803l1585 1118l-1413 996h713l1171 -881v881h496v-881l1171 881h713l-1401 -996l1573 -1118h-790l-1266 930v-930h-496z" />
    <glyph glyph-name="FDW231" unicode="&#xe7;" horiz-adv-x="2957" 
d="M774 1737l1327 0.000976562v-451h-725v-414h725v-475h-1327v455l-491 -102v-250c0 -192 35.333 -323.333 106 -394c76 -70.667 215.333 -106 418 -106h1347c99.333 0 197.333 30.167 294 90.5s145 162.5 145 306.5v389c0 90 -19.833 153.833 -59.5 191.5
s-99.167 77.834 -178.5 120.501c66 27.333 122.167 64.666 168.5 111.999s69.5 102.666 69.5 165.999v238c0 190.667 -35.667 321.667 -107 393c-74.667 71.333 -214 107 -418 107h-1261c-203.333 0 -342.666 -35.667 -417.999 -107
c-70.667 -70.667 -106 -201.667 -106 -393v-201l491 -78v402z" />
    <glyph glyph-name="FDW231" unicode="&#x437;" horiz-adv-x="2957" 
d="M774 1737l1327 0.000976562v-451h-725v-414h725v-475h-1327v455l-491 -102v-250c0 -192 35.333 -323.333 106 -394c76 -70.667 215.333 -106 418 -106h1347c99.333 0 197.333 30.167 294 90.5s145 162.5 145 306.5v389c0 90 -19.833 153.833 -59.5 191.5
s-99.167 77.834 -178.5 120.501c66 27.333 122.167 64.666 168.5 111.999s69.5 102.666 69.5 165.999v238c0 190.667 -35.667 321.667 -107 393c-74.667 71.333 -214 107 -418 107h-1261c-203.333 0 -342.666 -35.667 -417.999 -107
c-70.667 -70.667 -106 -201.667 -106 -393v-201l491 -78v402z" />
    <glyph glyph-name="FDW232" unicode="&#xe8;" horiz-adv-x="3064" 
d="M2732 0v2114h-336l-1487 -1246c-62 -48 -107 -86 -135 -114c-32 -32 -67.333 -70.333 -106 -115l8.5 139c3 50 5.5 87 7.5 111c2.66699 32.667 4 71 4 115v1110h-442v-2114h336l1552 1307c44.667 38.667 77.334 68.667 98 90c33.333 32.667 59.333 60 78 82
c-1.33301 -24 -4 -56 -8 -96s-6.66699 -69.667 -8 -89c-2.66699 -40.667 -4 -91 -4 -151v-1143h442z" />
    <glyph glyph-name="FDW232" unicode="&#x438;" horiz-adv-x="3064" 
d="M2732 0v2114h-336l-1487 -1246c-62 -48 -107 -86 -135 -114c-32 -32 -67.333 -70.333 -106 -115l8.5 139c3 50 5.5 87 7.5 111c2.66699 32.667 4 71 4 115v1110h-442v-2114h336l1552 1307c44.667 38.667 77.334 68.667 98 90c33.333 32.667 59.333 60 78 82
c-1.33301 -24 -4 -56 -8 -96s-6.66699 -69.667 -8 -89c-2.66699 -40.667 -4 -91 -4 -151v-1143h442z" />
    <glyph glyph-name="FDW233" unicode="&#xe9;" horiz-adv-x="2945" 
d="M2732 0v2114h-336l-1487 -1246c-62 -48 -107 -86 -135 -114c-32 -32 -67.333 -70.333 -106 -115l8.5 139c3 50 5.5 87 7.5 111c2.66699 32.667 4 71 4 115v1110h-442v-2114h336l1552 1307c44.667 38.667 77.334 68.667 98 90c33.333 32.667 59.333 60 78 82
c-1.33301 -24 -4 -56 -8 -96s-6.66699 -69.667 -8 -89c-2.66699 -40.667 -4 -91 -4 -151v-1143h442zM1040 2114v360h955v-360h-955z" />
    <glyph glyph-name="FDW233" unicode="&#x439;" horiz-adv-x="2945" 
d="M2732 0v2114h-336l-1487 -1246c-62 -48 -107 -86 -135 -114c-32 -32 -67.333 -70.333 -106 -115l8.5 139c3 50 5.5 87 7.5 111c2.66699 32.667 4 71 4 115v1110h-442v-2114h336l1552 1307c44.667 38.667 77.334 68.667 98 90c33.333 32.667 59.333 60 78 82
c-1.33301 -24 -4 -56 -8 -96s-6.66699 -69.667 -8 -89c-2.66699 -40.667 -4 -91 -4 -151v-1143h442zM1040 2114v360h955v-360h-955z" />
    <glyph glyph-name="FDW234" unicode="&#xea;" horiz-adv-x="2929" 
d="M193 0v2114h495v-881l1172 881h712l-1401 -996l1573 -1118h-790l-1266 930v-930h-495z" />
    <glyph glyph-name="FDW234" unicode="&#x43a;" horiz-adv-x="2929" 
d="M193 0v2114h495v-881l1172 881h712l-1401 -996l1573 -1118h-790l-1266 930v-930h-495z" />
    <glyph glyph-name="FDW235" unicode="&#xeb;" horiz-adv-x="2789" 
d="M1565 2114l1220 -2114h-561l-856 1528l-815 -1528h-492l1164 2114h340z" />
    <glyph glyph-name="FDW235" unicode="&#x43b;" horiz-adv-x="2789" 
d="M1565 2114l1220 -2114h-561l-856 1528l-815 -1528h-492l1164 2114h340z" />
    <glyph glyph-name="FDW236" unicode="&#xec;" horiz-adv-x="3265" 
d="M250 0v2114h397l995 -1278l975 1278h394v-2114h-455v1307c0 38 1.33301 69.333 4 94c3.33301 32.667 7.33301 76.334 12 131.001c-13.333 -24.667 -25.666 -48.667 -37 -72c-11.333 -23.333 -22 -44.333 -32 -63c-25.333 -45.333 -43.333 -74 -54 -86l-794 -1057h-99
l-794 1061c-21.333 26.667 -46 65 -74 115c-27.333 44 -45 78 -53 102c4 -44.667 8 -85.667 12 -123v-102v-1307h-397z" />
    <glyph glyph-name="FDW236" unicode="&#x43c;" horiz-adv-x="3265" 
d="M250 0v2114h397l995 -1278l975 1278h394v-2114h-455v1307c0 38 1.33301 69.333 4 94c3.33301 32.667 7.33301 76.334 12 131.001c-13.333 -24.667 -25.666 -48.667 -37 -72c-11.333 -23.333 -22 -44.333 -32 -63c-25.333 -45.333 -43.333 -74 -54 -86l-794 -1057h-99
l-794 1061c-21.333 26.667 -46 65 -74 115c-27.333 44 -45 78 -53 102c4 -44.667 8 -85.667 12 -123v-102v-1307h-397z" />
    <glyph glyph-name="FDW237" unicode="&#xed;" horiz-adv-x="3109" 
d="M287 0v2114h491v-820h1536v820h496v-2114h-496v909h-1536v-909h-491z" />
    <glyph glyph-name="FDW237" unicode="&#x43d;" horiz-adv-x="3109" 
d="M287 0v2114h491v-820h1536v820h496v-2114h-496v909h-1536v-909h-491z" />
    <glyph glyph-name="FDW238" unicode="&#xee;" horiz-adv-x="3215" 
d="M283 1614c0 191.333 35.334 322.333 106.001 393c75.333 71.333 214.666 107 417.999 107h1556c204.667 0 342.667 -35.667 414 -107c74 -70 111 -201 111 -393v-1114c0 -192.667 -37 -324 -111 -394c-72 -70.667 -210 -106 -414 -106h-1556
c-202.667 -0 -342 35.333 -418 106c-70.667 70.667 -106 202 -106 394v1114zM774.001 397h1622v1340h-1622v-1340z" />
    <glyph glyph-name="FDW238" unicode="&#x43e;" horiz-adv-x="3215" 
d="M283 1614c0 191.333 35.334 322.333 106.001 393c75.333 71.333 214.666 107 417.999 107h1556c204.667 0 342.667 -35.667 414 -107c74 -70 111 -201 111 -393v-1114c0 -192.667 -37 -324 -111 -394c-72 -70.667 -210 -106 -414 -106h-1556
c-202.667 -0 -342 35.333 -418 106c-70.667 70.667 -106 202 -106 394v1114zM774.001 397h1622v1340h-1622v-1340z" />
    <glyph glyph-name="FDW239" unicode="&#xef;" horiz-adv-x="3027" 
d="M778 0v1716h1401v-1716h492v2114h-525h-1859v-500v-1614h491z" />
    <glyph glyph-name="FDW239" unicode="&#x43f;" horiz-adv-x="3027" 
d="M778 0v1716h1401v-1716h492v2114h-525h-1859v-500v-1614h491z" />
    <glyph glyph-name="FDW240" unicode="&#xf0;" horiz-adv-x="3043" 
d="M1847 1749l-1106 -0.00195312v-561h1106c86 0 144.667 12.333 176 37c30 24.667 45 68.334 45 131.001v225c0 62.667 -15 106.334 -45 131.001c-31.333 24.667 -90 37 -176 37zM258 -0.00195312v2114h1806c166 0 289 -31.667 369 -95c74 -64.667 111 -169.667 111 -315
v-471c0 -142 -37 -245.667 -111 -311c-78 -66 -201 -99 -369 -99h-1323v-823h-483z" />
    <glyph glyph-name="FDW240" unicode="&#x440;" horiz-adv-x="3043" 
d="M1847 1749l-1106 -0.00195312v-561h1106c86 0 144.667 12.333 176 37c30 24.667 45 68.334 45 131.001v225c0 62.667 -15 106.334 -45 131.001c-31.333 24.667 -90 37 -176 37zM258 -0.00195312v2114h1806c166 0 289 -31.667 369 -95c74 -64.667 111 -169.667 111 -315
v-471c0 -142 -37 -245.667 -111 -311c-78 -66 -201 -99 -369 -99h-1323v-823h-483z" />
    <glyph glyph-name="FDW241" unicode="&#xf1;" horiz-adv-x="2871" 
d="M2134 1737h-1327v-1340h1327v455l492 -102v-250c0 -191.333 -35.667 -322.666 -107 -393.999c-76 -70.667 -215.333 -106 -418 -106h-1261c-202.667 0 -342 35.333 -418 106c-71.333 71.333 -107 202.666 -107 393.999v1114c0 190.667 35.667 321.667 107 393
c75.333 71.333 214.666 107 417.999 107h1261c203.333 0 342.666 -35.667 418 -107c71.333 -71.333 107 -202.333 107 -393v-201l-492 -78v402z" />
    <glyph glyph-name="FDW241" unicode="&#x441;" horiz-adv-x="2871" 
d="M2134 1737h-1327v-1340h1327v455l492 -102v-250c0 -191.333 -35.667 -322.666 -107 -393.999c-76 -70.667 -215.333 -106 -418 -106h-1261c-202.667 0 -342 35.333 -418 106c-71.333 71.333 -107 202.666 -107 393.999v1114c0 190.667 35.667 321.667 107 393
c75.333 71.333 214.666 107 417.999 107h1261c203.333 0 342.666 -35.667 418 -107c71.333 -71.333 107 -202.333 107 -393v-201l-492 -78v402z" />
    <glyph glyph-name="FDW242" unicode="&#xf2;" horiz-adv-x="2560" 
d="M1561 1737v-1737h-492v1737h-971v377h2437v-377h-974z" />
    <glyph glyph-name="FDW242" unicode="&#x442;" horiz-adv-x="2560" 
d="M1561 1737v-1737h-492v1737h-971v377h2437v-377h-974z" />
    <glyph glyph-name="FDW243" unicode="&#xf3;" horiz-adv-x="3174" 
d="M373 0v396.999h1208h684v348h-1368c-204.667 0 -342.667 35.667 -414 107c-73.333 70 -110 201 -110 393v869h491v-1004h1401v1004h492v-1614c0 -191.333 -35.667 -322.666 -107 -393.999c-76 -70.667 -215.333 -106 -418 -106h-688h-647h-524z" />
    <glyph glyph-name="FDW243" unicode="&#x443;" horiz-adv-x="3174" 
d="M373 0v396.999h1208h684v348h-1368c-204.667 0 -342.667 35.667 -414 107c-73.333 70 -110 201 -110 393v869h491v-1004h1401v1004h492v-1614c0 -191.333 -35.667 -322.666 -107 -393.999c-76 -70.667 -215.333 -106 -418 -106h-688h-647h-524z" />
    <glyph glyph-name="FDW244" unicode="&#xf4;" horiz-adv-x="4186" 
d="M2372 1749h835c82.667 0 141.334 -13.667 176 -41c30 -26 45 -69.667 45 -131v-623c0 -61.333 -15 -105 -45 -131c-32.667 -24.667 -91.334 -37 -176 -37h-835v963zM2372 8v385.001h1056c166 0 289 31.333 369 94c74 66 111 171.333 111 316v901
c0 142 -37 245.667 -111 311c-78 66 -201 99 -369 99h-1040h-303h-1323c-166 0 -289 -31.667 -369 -95c-73.333 -64.667 -110 -169.667 -110 -315v-901c0 -142.667 36.667 -246.334 110 -311.001c78 -66 201 -99 369 -99h1069v-385h541zM979 1749l851.999 -0.000976562v-963
h-852c-80 0 -138.667 13.667 -176 41c-30 26 -45 69.667 -45 131v623c0 62.667 15 106.334 45 131.001c32.667 24.667 91.334 37 176.001 37z" />
    <glyph glyph-name="FDW244" unicode="&#x444;" horiz-adv-x="4186" 
d="M2372 1749h835c82.667 0 141.334 -13.667 176 -41c30 -26 45 -69.667 45 -131v-623c0 -61.333 -15 -105 -45 -131c-32.667 -24.667 -91.334 -37 -176 -37h-835v963zM2372 8v385.001h1056c166 0 289 31.333 369 94c74 66 111 171.333 111 316v901
c0 142 -37 245.667 -111 311c-78 66 -201 99 -369 99h-1040h-303h-1323c-166 0 -289 -31.667 -369 -95c-73.333 -64.667 -110 -169.667 -110 -315v-901c0 -142.667 36.667 -246.334 110 -311.001c78 -66 201 -99 369 -99h1069v-385h541zM979 1749l851.999 -0.000976562v-963
h-852c-80 0 -138.667 13.667 -176 41c-30 26 -45 69.667 -45 131v623c0 62.667 15 106.334 45 131.001c32.667 24.667 91.334 37 176.001 37z" />
    <glyph glyph-name="FDW245" unicode="&#xf5;" horiz-adv-x="3088" 
d="M193 0l1003 1085l-1020 1029h651l676 -717l643 717h566l-922 -971l1139 -1143h-668l-774 819l-713 -819h-581z" />
    <glyph glyph-name="FDW245" unicode="&#x445;" horiz-adv-x="3088" 
d="M193 0l1003 1085l-1020 1029h651l676 -717l643 717h566l-922 -971l1139 -1143h-668l-774 819l-713 -819h-581z" />
    <glyph glyph-name="FDW246" unicode="&#xf6;" horiz-adv-x="3465" 
d="M836 2114l0.000976562 -1717h1400v1717h492v-1717h455v-712h-455v315h-651h-1209c-204.667 -0 -342.334 35.333 -413.001 106c-74 70 -111 201.333 -111 394v1614h492z" />
    <glyph glyph-name="FDW246" unicode="&#x446;" horiz-adv-x="3465" 
d="M836 2114l0.000976562 -1717h1400v1717h492v-1717h455v-712h-455v315h-651h-1209c-204.667 -0 -342.334 35.333 -413.001 106c-74 70 -111 201.333 -111 394v1614h492z" />
    <glyph glyph-name="divide" unicode="&#xf7;" horiz-adv-x="3142" 
d="M807 2114v-1102h1401v1102h491v-2114h-491v627h-1368c-204 0 -342 35.333 -414 106c-74 70 -111 201 -111 393v988h492z" />
    <glyph glyph-name="divide" unicode="&#x447;" horiz-adv-x="3142" 
d="M807 2114v-1102h1401v1102h491v-2114h-491v627h-1368c-204 0 -342 35.333 -414 106c-74 70 -111 201 -111 393v988h492z" />
    <glyph glyph-name="oslash" unicode="&#xf8;" horiz-adv-x="4051" 
d="M750 2114l0.000976562 -1717h991v1717h553v-1717h966v1717h492v-1614c0 -191.333 -35.667 -322.666 -107 -393.999c-74.667 -70.667 -213.667 -106 -417 -106h-2138h-308c-204.667 -0 -342.334 35.333 -413.001 106c-74 70 -111 201.333 -111 394v1614h492z" />
    <glyph glyph-name="oslash" unicode="&#x448;" horiz-adv-x="4051" 
d="M750 2114l0.000976562 -1717h991v1717h553v-1717h966v1717h492v-1614c0 -191.333 -35.667 -322.666 -107 -393.999c-74.667 -70.667 -213.667 -106 -417 -106h-2138h-308c-204.667 -0 -342.334 35.333 -413.001 106c-74 70 -111 201.333 -111 394v1614h492z" />
    <glyph glyph-name="FDW249" unicode="&#xf9;" horiz-adv-x="4575" 
d="M778 2114v-1717h991v1717h553v-1717h967v1717h492v-1717h450v-708h-450v311h-2663h-307c-204 -0 -342 35.333 -414 106c-73.333 70 -110 201.333 -110 394v1614h491z" />
    <glyph glyph-name="FDW249" unicode="&#x449;" horiz-adv-x="4575" 
d="M778 2114v-1717h991v1717h553v-1717h967v1717h492v-1717h450v-708h-450v311h-2663h-307c-204 -0 -342 35.333 -414 106c-73.333 70 -110 201.333 -110 394v1614h491z" />
    <glyph glyph-name="FDW250" unicode="&#xfa;" horiz-adv-x="3187" 
d="M2200 365l-1106 0.00195312v561h1106c83.333 0 142 -12.333 176 -37c30 -26.667 45 -70.334 45 -131.001v-226c0 -60.667 -15 -104.334 -45 -131.001c-32.667 -24 -91.334 -36 -176 -36zM610 1749v-1749h1807c165.333 0 288 31.333 368 94c74 66 111 171.333 111 316v471
c0 141.333 -37 245 -111 311c-78.667 65.333 -201.334 98 -368 98h-1323v824h-975l168 -365h323z" />
    <glyph glyph-name="FDW250" unicode="&#x44a;" horiz-adv-x="3187" 
d="M2200 365l-1106 0.00195312v561h1106c83.333 0 142 -12.333 176 -37c30 -26.667 45 -70.334 45 -131.001v-226c0 -60.667 -15 -104.334 -45 -131.001c-32.667 -24 -91.334 -36 -176 -36zM610 1749v-1749h1807c165.333 0 288 31.333 368 94c74 66 111 171.333 111 316v471
c0 141.333 -37 245 -111 311c-78.667 65.333 -201.334 98 -368 98h-1323v824h-975l168 -365h323z" />
    <glyph glyph-name="FDW251" unicode="&#xfb;" horiz-adv-x="3805" 
d="M1933 365h-1106v561h1106c84.667 0 143.334 -12.333 176.001 -37c30 -26 45 -69.667 45 -131v-226c0 -61.333 -15 -105 -45 -131c-32 -24 -90.667 -36 -176 -36zM343.999 2114v-2114h1806c166 -0 289 31.333 369 94c74 66 111 171.333 111 316v471
c0 141.333 -37 245 -111 311c-78.667 65.333 -201.667 98 -369 98h-1323v824h-483zM2945 -4v2118h508v-2118h-508z" />
    <glyph glyph-name="FDW251" unicode="&#x44b;" horiz-adv-x="3805" 
d="M1933 365h-1106v561h1106c84.667 0 143.334 -12.333 176.001 -37c30 -26 45 -69.667 45 -131v-226c0 -61.333 -15 -105 -45 -131c-32 -24 -90.667 -36 -176 -36zM343.999 2114v-2114h1806c166 -0 289 31.333 369 94c74 66 111 171.333 111 316v471
c0 141.333 -37 245 -111 311c-78.667 65.333 -201.667 98 -369 98h-1323v824h-483zM2945 -4v2118h508v-2118h-508z" />
    <glyph glyph-name="FDW252" unicode="&#xfc;" horiz-adv-x="3043" 
d="M1995 365h-1106v561h1106c83.333 0 142 -12.333 176 -37c30 -26 45 -69.667 45 -131v-226c0 -61.333 -15 -105 -45 -131c-32.667 -24 -91.334 -36 -176 -36zM406 2114v-2114h1806c166 -0 288.667 31.333 368 94c74 66 111 171.333 111 316v471
c0 141.333 -37 245 -111 311c-77.333 65.333 -200 98 -368 98h-1323v824h-483z" />
    <glyph glyph-name="FDW252" unicode="&#x44c;" horiz-adv-x="3043" 
d="M1995 365h-1106v561h1106c83.333 0 142 -12.333 176 -37c30 -26 45 -69.667 45 -131v-226c0 -61.333 -15 -105 -45 -131c-32.667 -24 -91.334 -36 -176 -36zM406 2114v-2114h1806c166 -0 288.667 31.333 368 94c74 66 111 171.333 111 316v471
c0 141.333 -37 245 -111 311c-77.333 65.333 -200 98 -368 98h-1323v824h-483z" />
    <glyph glyph-name="FDW253" unicode="&#xfd;" horiz-adv-x="2957" 
d="M807 1737l1327 -0.00195312v-451h-1057v-414h1057v-475h-1327v238l-492 115v-250c0 -191.333 35.667 -322.666 107 -393.999c76 -70.667 215.333 -106 418 -106h1347c56 0 118.167 11.667 186.5 35s127.5 64.833 177.5 124.5s75 138.834 75 237.501v979v238
c0 190.667 -35.667 321.667 -107 393c-75.333 71.333 -214.666 107 -417.999 107h-1261c-203.333 0 -342.666 -35.667 -417.999 -107c-71.333 -71.333 -107 -202.333 -107 -393v-201l492 123v201z" />
    <glyph glyph-name="FDW253" unicode="&#x44d;" horiz-adv-x="2957" 
d="M807 1737l1327 -0.00195312v-451h-1057v-414h1057v-475h-1327v238l-492 115v-250c0 -191.333 35.667 -322.666 107 -393.999c76 -70.667 215.333 -106 418 -106h1347c56 0 118.167 11.667 186.5 35s127.5 64.833 177.5 124.5s75 138.834 75 237.501v979v238
c0 190.667 -35.667 321.667 -107 393c-75.333 71.333 -214.666 107 -417.999 107h-1261c-203.333 0 -342.666 -35.667 -417.999 -107c-71.333 -71.333 -107 -202.333 -107 -393v-201l492 123v201z" />
    <glyph glyph-name="FDW254" unicode="&#xfe;" horiz-adv-x="4125" 
d="M1278 1614c0 190 35.334 321 106.001 393c75.333 71.333 214.666 107 417.999 107h1557c205.333 0 343 -35.667 413 -107c74 -70 111 -201 111 -393v-1114c0 -192.667 -37 -324 -111 -394c-70.667 -70.667 -208.334 -106 -413 -106h-1557
c-202.667 -0 -342 35.333 -418 106c-70.667 72 -106 203.333 -106 394v360h-541v-860h-475v2114h475v-832h541v332zM1769 397h1622v1340h-1622v-1340z" />
    <glyph glyph-name="FDW254" unicode="&#x44e;" horiz-adv-x="4125" 
d="M1278 1614c0 190 35.334 321 106.001 393c75.333 71.333 214.666 107 417.999 107h1557c205.333 0 343 -35.667 413 -107c74 -70 111 -201 111 -393v-1114c0 -192.667 -37 -324 -111 -394c-70.667 -70.667 -208.334 -106 -413 -106h-1557
c-202.667 -0 -342 35.333 -418 106c-70.667 72 -106 203.333 -106 394v360h-541v-860h-475v2114h475v-832h541v332zM1769 397h1622v1340h-1622v-1340z" />
    <glyph glyph-name="FDW255" unicode="&#xff;" horiz-adv-x="3285" 
d="M1290 1749l1106 -0.000976562v-590h-1106c-84.667 0 -143.334 12.333 -176.001 37c-30 26 -45 69.667 -45 131v254c0 62.667 15 106.334 45 131.001c32.667 24.667 91.334 37 176.001 37zM2879 -0.000976562l0.000976562 2114h-1806
c-166.667 0 -289.334 -31.667 -368.001 -95c-74 -64.667 -111 -169.667 -111 -315v-496c0 -141.333 37 -245 111 -311c76 -65.333 198.667 -98 368 -98h275l-975 -799h704l852 799h467v-799h483z" />
    <glyph glyph-name="FDW255" unicode="&#x44f;" horiz-adv-x="3285" 
d="M1290 1749l1106 -0.000976562v-590h-1106c-84.667 0 -143.334 12.333 -176.001 37c-30 26 -45 69.667 -45 131v254c0 62.667 15 106.334 45 131.001c32.667 24.667 91.334 37 176.001 37zM2879 -0.000976562l0.000976562 2114h-1806
c-166.667 0 -289.334 -31.667 -368.001 -95c-74 -64.667 -111 -169.667 -111 -315v-496c0 -141.333 37 -245 111 -311c76 -65.333 198.667 -98 368 -98h275l-975 -799h704l852 799h467v-799h483z" />
    <glyph glyph-name="OE" unicode="&#x152;" horiz-adv-x="4526" 
d="M1016 1614c0 190 35.334 321 106.001 393c75.333 71.333 214.666 107 417.999 107h3121v-361h-1364v-471h975v-360h-975v-525h1385v-397h-3142c-202.667 -0 -342 35.333 -418 106c-70.667 72 -106 203.333 -106 394v1114zM1507 397h1311v1356h-1311v-1356z" />
    <glyph glyph-name="oe" unicode="&#x153;" horiz-adv-x="3715" 
d="M1126 332h1131v1085h-1131v-1085zM705 1323c0 160 30 268 90 324c61.333 57.333 181.333 86 360 86h2687v-308h-1176v-376h840v-299h-840v-422h1192v-328h-2703c-176 0 -294.667 28.667 -356 86c-62.667 57.333 -94 165.333 -94 324v913z" />
    <glyph glyph-name="FDW138" unicode="&#x160;" horiz-adv-x="3412" 
d="M3441 324v-279h-2368v279h2368zM3437 2118l-1872 -619l1872 -610v-299l-2364 790v242l2364 791v-295z" />
    <glyph glyph-name="FDW154" unicode="&#x161;" horiz-adv-x="3129" 
d="M3138 356v-355.999h-1201v356c236.667 126 421 301 553 525c131.333 221.333 197 467 197 737c0 322 -87.333 578.667 -262 770c-178 194 -410 291 -696 291c-286.667 0 -519 -97 -697 -291c-177.333 -194.667 -266 -451.334 -266 -770.001c0 -273.333 67 -519 201 -737
c132 -224 316.333 -399 553 -525v-356h-1201v356h639c-214 190.667 -366.667 383.334 -458 578.001c-98.667 195.333 -148 416.333 -148 663c0 423.333 128.333 767.666 385 1033c254 262 584.667 393 992 393c402.667 0 733 -131 991 -393c254 -262.667 381 -600 381 -1012
c0 -263.333 -46.667 -491.333 -140 -684c-92.667 -194 -246.667 -386.667 -462 -578h639z" />
    <glyph glyph-name="FDW159" unicode="&#x178;" horiz-adv-x="2023" 
d="M1024 2818l-770 -1634l770 -1651l770 1651zM1024 3305l999 -2121l-999 -2138l-999 2138z" />
    <glyph glyph-name="florin" unicode="&#x192;" horiz-adv-x="3166" 
d="M1987 25c-40.667 -212.667 -107.666 -357.667 -200.999 -435c-92.667 -76 -245.667 -114 -459 -114c-182.667 0 -317.667 33.833 -405 101.5s-131 170.167 -131 307.5v140l401 94l-4 -160v-16c0 -52 11 -89 33 -111c19.333 -19.333 58.666 -29 117.999 -29
c57.333 0 105.333 19.333 144 58c30 33.333 56 97.333 78 192l254 1295h-381v237h430l82 422c44.667 211.333 114 356 208 434c94.667 74 261.334 111 500 111c160.667 0 282.334 -32.667 365 -98c78 -66 119 -167.333 123 -304l4 -139l-406 -57l8 131v16
c0 48.667 -10.667 84.334 -32 107c-23.333 22 -59 33 -107 33c-68 0 -119.667 -18 -155 -54c-32 -35.333 -58 -100.666 -78 -196l-82 -406h442v-237h-491z" />
    <glyph glyph-name="FDW136" unicode="&#x2c6;" horiz-adv-x="3412" 
d="M3158 2224l-373 -471h652v-270h-832l-410 -525h1242v-270h-1418l-499 -635l-209 168l368 467h-639v270h815l410 525h-1225v270h1405l504 635z" />
    <glyph glyph-name="FDW152" unicode="&#x2dc;" horiz-adv-x="2134" 
d="M721 -524c142 0 220.999 458.667 236.999 1376c2 44 3.66699 103 5 177s2.66602 125.667 3.99902 155c16 687.333 87 1177.33 213 1470c126.667 298 324.667 447 594 447c104 0 191.333 -28.667 262 -86c65.333 -54 98 -125 98 -213c0 -72.667 -22 -128.667 -66 -168
c-39.333 -44 -96.666 -66 -171.999 -66c-56 0 -102.333 12.333 -139 37c-38 30 -65.333 67 -82 111c-10 24.667 -16.667 58.667 -20 102c-4 46.667 -17.667 70 -41 70c-140 0 -220.667 -412.333 -242 -1237c-0.666992 -64 -2.16699 -138.833 -4.5 -224.5
s-4.66602 -165.334 -6.99902 -239.001l-4.5 -143.5c-21.333 -641.333 -95 -1098.67 -221 -1372c-127.333 -275.333 -321.333 -413 -582 -413c-106 0 -192 27.333 -258 82c-68 51.333 -102 122.333 -102 213c0 71.333 23 130 69 176c44.667 40.667 107.667 61 189 61
c45.333 0 83.333 -9.66699 114 -29c33.333 -23.333 59.333 -52 78 -86c15.333 -26 25 -64 29 -114c8 -57.333 24.333 -86 49 -86z" />
    <glyph glyph-name="endash" unicode="&#x2013;" 
d="M0 946v287h2048v-287h-2048z" />
    <glyph glyph-name="emdash" unicode="&#x2014;" horiz-adv-x="4096" 
d="M0 1233h4096v-287h-4096v287z" />
    <glyph glyph-name="quoteleft" unicode="&#x2018;" horiz-adv-x="1356" 
d="M913 934l-69.001 0.000976562c-35.333 0 -61.333 11 -78 33c-14 23.333 -21 62.666 -21 117.999v422l406 607h242l-349 -623h234c34 0 60 -11 78 -33c13.333 -22 20 -61.667 20 -119v-254c0 -59.333 -6.66699 -100 -20 -122c-15.333 -19.333 -64.666 -29 -147.999 -29
h-295z" />
    <glyph glyph-name="quoteright" unicode="&#x2019;" horiz-adv-x="1356" 
d="M1184 2114h69c34.667 0 60.667 -11 78 -33c14 -24.667 21 -64.334 21 -119.001v-422l-406 -606h-241l348 622h-234c-33.333 0 -59.333 11 -78 33c-13.333 23.333 -20 63 -20 119v254c0 60.667 8 101.667 24 123.001c12.667 19.333 60.667 29 144 29h295z" />
    <glyph glyph-name="FDW130" unicode="&#x201a;" 
d="M881 1954l376 696h435l376 -696h-262l-331 422l-336 -422h-258z" />
    <glyph glyph-name="quotedblleft" unicode="&#x201c;" horiz-adv-x="2372" 
d="M1929 934l-69 0.000976562c-39.333 0 -65.333 11 -78 33c-16.667 19.333 -25 58.666 -25 117.999v422l406 607h245l-348 -623h234c34 0 60 -11 78 -33c13.333 -22 20 -61.667 20 -119v-254c0 -62 -8.33301 -102.667 -25 -122c-14.667 -19.333 -63.667 -29 -147 -29h-291z
M913 934.001l-69.001 0.000976562c-35.333 0 -61.333 11 -78 33c-14 23.333 -21 62.666 -21 117.999v422l406 607h242l-349 -623h234c34 0 60 -11 78 -33c13.333 -22 20 -61.667 20 -119v-254c0 -59.333 -6.66699 -100 -20 -122c-15.333 -19.333 -64.666 -29 -147.999 -29
h-295z" />
    <glyph glyph-name="quotedblright" unicode="&#x201d;" horiz-adv-x="2372" 
d="M2195 2114l74 -0.00195312c34.667 0 60.667 -11 78 -33c13.333 -23.333 20 -63 20 -119v-422l-405 -606h-246l348 622h-229c-38.667 0 -64.667 11 -78 33c-16 20.667 -24 60.334 -24 119.001v254c0 60.667 8 101.667 24 123.001c16.667 19.333 66 29 148 29h290z
M1184 2114h69c34.667 0 60.667 -11 78 -33c14 -24.667 21 -64.334 21 -119.001v-422l-406 -606h-241l348 622h-234c-33.333 0 -59.333 11 -78 33c-13.333 23.333 -20 63 -20 119v254c0 60.667 8 101.667 24 123.001c12.667 19.333 60.667 29 144 29h295z" />
    <glyph glyph-name="dagger" unicode="&#x2020;" 
d="M1270 -434c-15.333 263.333 -34.6689 476.334 -58.002 639.001c-30.667 218.667 -66 403 -106 553c26 65.333 56 152.666 90 261.999c26.667 78 51.334 170.667 74.001 278l-676 -151v434l676 -143l-164 676h442l-168 -676l676 143v-434l-676 151
c30 -127.333 53.333 -217.333 70 -270c31.333 -97.333 64 -187.333 98 -270c-45.333 -172.667 -82 -359.667 -110 -561c-23.333 -162.667 -42.666 -373 -57.999 -631h-110z" />
    <glyph glyph-name="bullet" unicode="&#x2022;" horiz-adv-x="2417" 
d="M1257 1524c0 163.333 57.666 302.667 172.999 418c118.667 114.667 259 172 421 172c158.667 0 298 -57.333 418 -172c114.667 -114.667 172 -254 172 -418c0 -161.333 -58.667 -300.666 -176 -417.999c-113.333 -117.333 -252.666 -176 -417.999 -176
s-304.333 58.667 -417 176c-115.333 115.333 -173 254.666 -173 417.999z" />
    <glyph glyph-name="ellipsis" unicode="&#x2026;" horiz-adv-x="4096" 
d="M1208 635h73.999c34 0 60 -11 78 -33c13.333 -22 20 -61.667 20 -119v-331c0 -62 -8 -103 -24 -123c-15.333 -19.333 -64.666 -29 -147.999 -29h-364c-35.333 0 -61.333 11 -78 33c-14 23.333 -21 63 -21 119v331c0 61.333 8.33301 102.333 25 123
c14.667 19.333 64 29 148 29h290zM2572 635h73.999c34 0 60 -11 78 -33c13.333 -22 20 -61.667 20 -119v-331c0 -62 -8 -103 -24 -123c-15.333 -19.333 -64.666 -29 -147.999 -29h-364c-35.333 0 -61.333 11 -78 33c-14 23.333 -21 63 -21 119v331
c0 61.333 8.33301 102.333 25 123c14.667 19.333 63.667 29 147 29h291zM3940 635h74c35.333 0 61.333 -11 78 -33c13.334 -22 20 -61.667 20 -119v-331c0 -62 -8 -103 -24 -123c-15.333 -19.333 -64.666 -29 -148 -29h-364c-35.333 0 -61.333 11 -78 33
c-13.333 22 -20 61.667 -20 119v331c0 62 8 103 24 123c14.667 19.333 64 29 148 29h290z" />
    <glyph glyph-name="FDW137" unicode="&#x2030;" horiz-adv-x="3412" 
d="M2294 1118c66 -120.667 143.667 -209.334 233 -266.001c84.667 -60 184.334 -90 299 -90c135.333 0 246 45 332 135c84.667 88.667 127 203.334 127 344.001c0 136.667 -39.667 248.667 -119 336c-78 90 -176.333 135 -295 135c-106.667 0 -203.667 -43.667 -291 -131
c-86 -86 -181.333 -240.333 -286 -463zM2048 1331c-63.333 114 -139.666 202.668 -228.999 266.001c-88.667 57.333 -189.667 86 -303 86c-134 0 -244.667 -43.667 -332 -131c-84.667 -88.667 -127 -203.334 -127 -344.001c0 -131.333 39.667 -243.333 119 -336
c76.667 -90 174.667 -135 294 -135c109.333 0 207.666 43.667 294.999 131c86 90 180.333 244.333 283 463zM2146 1475c89.333 183.333 187.666 318.333 295 405c104.667 87.333 222 131 352 131c177.333 0 329 -75.167 455 -225.5s189 -335.833 189 -556.5
c0 -232 -54.667 -419 -164 -561c-111.333 -144.667 -257.666 -217 -439 -217c-123.333 0 -235 39.333 -335 118c-99.333 78.667 -202 211.334 -308 398.001c-92.667 -182.667 -191 -315.334 -295 -398.001c-100.667 -84.667 -216.667 -127 -348 -127
c-180.667 0 -332 75.333 -454 226c-126 146 -189 330.333 -189 553c0 230 56 418.333 168 565c112 144.667 256.667 217 434 217c124.667 0 238 -41 340 -123c100 -80 199.667 -215 299 -405z" />
    <glyph glyph-name="FDW139" unicode="&#x2039;" horiz-adv-x="3412" 
d="M3441 324v-279h-2368v279h2368zM3441 1622v-242l-2368 -790v299l1876 610l-1876 619v295z" />
    <glyph glyph-name="FDW155" unicode="&#x203a;" horiz-adv-x="2609" 
d="M2736 3322v-193h-229l-1188 -3211h-131l-639 1765l-250 -90l-49 160l565 197l512 -1418l1032 2790h377z" />
    <glyph glyph-name="trademark" unicode="&#x2122;" horiz-adv-x="3412" 
d="M2433 2916l303 -770l283 770h299v-1077h-197v889l-332 -889h-110l-348 889v-889h-197v1077h299zM1896 2916v-159h-344v-918h-217v918h-344v159h905z" />
    <glyph glyph-name=".null" horiz-adv-x="0" 
 />
    <glyph glyph-name="nonmarkingreturn" horiz-adv-x="0" 
 />
    </font>
</defs>
</svg>
